<?xml version="1.0" encoding="utf-8"?>
<!-- Generator: Adobe Illustrator 18.1.1, SVG Export Plug-In . SVG Version: 6.00 Build 0)  -->
<!DOCTYPE svg PUBLIC "-//W3C//DTD SVG 1.1//EN" "http://www.w3.org/Graphics/SVG/1.1/DTD/svg11.dtd">
<svg version="1.1" id="Layer_1" xmlns="http://www.w3.org/2000/svg" xmlns:xlink="http://www.w3.org/1999/xlink" x="0px" y="0px"
	 viewBox="0 0 50 50" enable-background="new 0 0 50 50" xml:space="preserve">
<rect x="440.7" y="-161.2" width="177.9" height="31.8"/>
<rect x="624.1" y="-222" fill="#A62C23" width="40" height="40"/>
<rect x="664.1" y="-222" fill="#FFFFFF" width="40" height="40"/>
<rect x="664.1" y="-182" width="40" height="40"/>
<rect x="623.6" y="-182" fill="#58595B" width="40" height="40"/>
<g>
	<polygon points="476.2,-179.1 479.1,-179.1 479.1,-170.8 480.8,-170.8 480.8,-179.1 483.7,-179.1 483.7,-180.6 476.2,-180.6 	"/>
	<path d="M494.7-177.4c0-1.1-0.3-1.9-1-2.4c-0.6-0.5-1.7-0.8-3.2-0.8h-3.6v9.8h1.7v-3.3h2.2l2.3,3.3h2.1l-2.6-3.6
		C494-174.8,494.7-175.8,494.7-177.4z M490.6-175.6h-2.1v-3.5h2.1c0.9,0,1.5,0.1,1.8,0.4c0.3,0.2,0.5,0.7,0.5,1.3
		c0,0.6-0.2,1.1-0.5,1.4C492.2-175.8,491.6-175.6,490.6-175.6z"/>
	<polygon points="500.2,-175 504.9,-175 504.9,-176.5 500.2,-176.5 500.2,-179.1 505.4,-179.1 505.4,-180.6 498.5,-180.6 
		498.5,-170.8 505.6,-170.8 505.6,-172.4 500.2,-172.4 	"/>
	<polygon points="516.4,-173.3 510.7,-180.6 509.1,-180.6 509.1,-170.8 510.7,-170.8 510.7,-178 516.3,-170.8 518.1,-170.8 
		518.1,-180.6 516.4,-180.6 	"/>
	<polygon points="521.3,-179.1 524.2,-179.1 524.2,-170.8 525.9,-170.8 525.9,-179.1 528.8,-179.1 528.8,-180.6 521.3,-180.6 	"/>
	<polygon points="533.7,-180.6 532,-180.6 532,-170.8 538.2,-170.8 538.2,-172.4 533.7,-172.4 	"/>
	<path d="M547.6-175.2c0,0.9-0.2,1.6-0.7,2.1c-0.4,0.5-1.1,0.8-1.8,0.8c-0.8,0-1.4-0.3-1.8-0.8c-0.4-0.5-0.7-1.2-0.7-2.1v-5.4H541
		v5.5c0,1.4,0.4,2.5,1.2,3.3c0.8,0.8,1.8,1.1,3,1.1c1.2,0,2.2-0.4,3-1.1c0.8-0.8,1.2-1.8,1.2-3.3v-5.5h-1.7V-175.2z"/>
	<polygon points="552.4,-179.1 555.3,-179.1 555.3,-170.8 557,-170.8 557,-179.1 559.9,-179.1 559.9,-180.6 552.4,-180.6 	"/>
	<polygon points="568.7,-174.5 565.7,-180.6 563.1,-180.6 563.1,-170.8 564.8,-170.8 564.8,-178.5 568.2,-171.7 569.1,-171.7 
		572.5,-178.5 572.5,-170.8 574.2,-170.8 574.2,-180.6 571.6,-180.6 	"/>
	<polygon points="579.9,-175 584.6,-175 584.6,-176.5 579.9,-176.5 579.9,-179.1 585.2,-179.1 585.2,-180.6 578.3,-180.6 
		578.3,-170.8 585.3,-170.8 585.3,-172.4 579.9,-172.4 	"/>
	<path d="M594.6-174.4c1.4-0.4,2.1-1.4,2.1-3.1c0-1.1-0.3-1.9-1-2.4c-0.6-0.5-1.7-0.8-3.2-0.8h-3.6v9.8h1.7v-3.3h2.2l2.3,3.3h2.1
		L594.6-174.4z M592.6-175.6h-2.1v-3.5h2.1c0.9,0,1.5,0.1,1.8,0.4c0.3,0.2,0.5,0.7,0.5,1.3c0,0.6-0.2,1.1-0.5,1.4
		C594.1-175.8,593.5-175.6,592.6-175.6z"/>
	<path d="M519.2-164.9h21v-21h-21V-164.9z M520.2-184.9h19v19h-19V-184.9z"/>
</g>
<g>
	<polygon fill="#FFFFFF" points="476.2,-149.1 479.1,-149.1 479.1,-140.8 480.8,-140.8 480.8,-149.1 483.7,-149.1 483.7,-150.6 
		476.2,-150.6 	"/>
	<path fill="#FFFFFF" d="M494.7-147.4c0-1.1-0.3-1.9-1-2.4c-0.6-0.5-1.7-0.8-3.2-0.8h-3.6v9.8h1.7v-3.3h2.2l2.3,3.3h2.1l-2.6-3.6
		C494-144.8,494.7-145.8,494.7-147.4z M490.6-145.6h-2.1v-3.5h2.1c0.9,0,1.5,0.1,1.8,0.4c0.3,0.2,0.5,0.7,0.5,1.3
		c0,0.6-0.2,1.1-0.5,1.4C492.2-145.8,491.6-145.6,490.6-145.6z"/>
	<polygon fill="#FFFFFF" points="500.2,-145 504.9,-145 504.9,-146.5 500.2,-146.5 500.2,-149.1 505.4,-149.1 505.4,-150.6 
		498.5,-150.6 498.5,-140.8 505.6,-140.8 505.6,-142.4 500.2,-142.4 	"/>
	<polygon fill="#FFFFFF" points="516.4,-143.3 510.7,-150.6 509.1,-150.6 509.1,-140.8 510.7,-140.8 510.7,-148 516.3,-140.8 
		518.1,-140.8 518.1,-150.6 516.4,-150.6 	"/>
	<polygon fill="#FFFFFF" points="521.3,-149.1 524.2,-149.1 524.2,-140.8 525.9,-140.8 525.9,-149.1 528.8,-149.1 528.8,-150.6 
		521.3,-150.6 	"/>
	<polygon fill="#FFFFFF" points="533.7,-150.6 532,-150.6 532,-140.8 538.2,-140.8 538.2,-142.4 533.7,-142.4 	"/>
	<path fill="#FFFFFF" d="M547.6-145.2c0,0.9-0.2,1.6-0.7,2.1c-0.4,0.5-1.1,0.8-1.8,0.8c-0.8,0-1.4-0.3-1.8-0.8
		c-0.4-0.5-0.7-1.2-0.7-2.1v-5.4H541v5.5c0,1.4,0.4,2.5,1.2,3.3c0.8,0.8,1.8,1.1,3,1.1c1.2,0,2.2-0.4,3-1.1c0.8-0.8,1.2-1.8,1.2-3.3
		v-5.5h-1.7V-145.2z"/>
	<polygon fill="#FFFFFF" points="552.4,-149.1 555.3,-149.1 555.3,-140.8 557,-140.8 557,-149.1 559.9,-149.1 559.9,-150.6 
		552.4,-150.6 	"/>
	<polygon fill="#FFFFFF" points="568.7,-144.5 565.7,-150.6 563.1,-150.6 563.1,-140.8 564.8,-140.8 564.8,-148.5 568.2,-141.7 
		569.1,-141.7 572.5,-148.5 572.5,-140.8 574.2,-140.8 574.2,-150.6 571.6,-150.6 	"/>
	<polygon fill="#FFFFFF" points="579.9,-145 584.6,-145 584.6,-146.5 579.9,-146.5 579.9,-149.1 585.2,-149.1 585.2,-150.6 
		578.3,-150.6 578.3,-140.8 585.3,-140.8 585.3,-142.4 579.9,-142.4 	"/>
	<path fill="#FFFFFF" d="M594.6-144.4c1.4-0.4,2.1-1.4,2.1-3.1c0-1.1-0.3-1.9-1-2.4c-0.6-0.5-1.7-0.8-3.2-0.8h-3.6v9.8h1.7v-3.3h2.2
		l2.3,3.3h2.1L594.6-144.4z M592.6-145.6h-2.1v-3.5h2.1c0.9,0,1.5,0.1,1.8,0.4c0.3,0.2,0.5,0.7,0.5,1.3c0,0.6-0.2,1.1-0.5,1.4
		C594.1-145.8,593.5-145.6,592.6-145.6z"/>
	<path fill="#FFFFFF" d="M519.2-134.9h21v-21h-21V-134.9z M520.2-154.9h19v19h-19V-154.9z"/>
</g>
<g>
	<polygon fill="#A62C23" points="476.2,-119.1 479.1,-119.1 479.1,-110.8 480.8,-110.8 480.8,-119.1 483.7,-119.1 483.7,-120.6 
		476.2,-120.6 	"/>
	<path fill="#A62C23" d="M494.7-117.4c0-1.1-0.3-1.9-1-2.4c-0.6-0.5-1.7-0.8-3.2-0.8h-3.6v9.8h1.7v-3.3h2.2l2.3,3.3h2.1l-2.6-3.6
		C494-114.8,494.7-115.8,494.7-117.4z M490.6-115.6h-2.1v-3.5h2.1c0.9,0,1.5,0.1,1.8,0.4c0.3,0.2,0.5,0.7,0.5,1.3
		c0,0.6-0.2,1.1-0.5,1.4C492.2-115.8,491.6-115.6,490.6-115.6z"/>
	<polygon fill="#A62C23" points="500.2,-115 504.9,-115 504.9,-116.5 500.2,-116.5 500.2,-119.1 505.4,-119.1 505.4,-120.6 
		498.5,-120.6 498.5,-110.8 505.6,-110.8 505.6,-112.4 500.2,-112.4 	"/>
	<polygon fill="#A62C23" points="516.4,-113.3 510.7,-120.6 509.1,-120.6 509.1,-110.8 510.7,-110.8 510.7,-118 516.3,-110.8 
		518.1,-110.8 518.1,-120.6 516.4,-120.6 	"/>
	<polygon fill="#A62C23" points="521.3,-119.1 524.2,-119.1 524.2,-110.8 525.9,-110.8 525.9,-119.1 528.8,-119.1 528.8,-120.6 
		521.3,-120.6 	"/>
	<polygon fill="#A62C23" points="533.7,-120.6 532,-120.6 532,-110.8 538.2,-110.8 538.2,-112.4 533.7,-112.4 	"/>
	<path fill="#A62C23" d="M547.6-115.2c0,0.9-0.2,1.6-0.7,2.1c-0.4,0.5-1.1,0.8-1.8,0.8c-0.8,0-1.4-0.3-1.8-0.8
		c-0.4-0.5-0.7-1.2-0.7-2.1v-5.4H541v5.5c0,1.4,0.4,2.5,1.2,3.3c0.8,0.8,1.8,1.1,3,1.1c1.2,0,2.2-0.4,3-1.1c0.8-0.8,1.2-1.8,1.2-3.3
		v-5.5h-1.7V-115.2z"/>
	<polygon fill="#A62C23" points="552.4,-119.1 555.3,-119.1 555.3,-110.8 557,-110.8 557,-119.1 559.9,-119.1 559.9,-120.6 
		552.4,-120.6 	"/>
	<polygon fill="#A62C23" points="568.7,-114.5 565.7,-120.6 563.1,-120.6 563.1,-110.8 564.8,-110.8 564.8,-118.5 568.2,-111.7 
		569.1,-111.7 572.5,-118.5 572.5,-110.8 574.2,-110.8 574.2,-120.6 571.6,-120.6 	"/>
	<polygon fill="#A62C23" points="579.9,-115 584.6,-115 584.6,-116.5 579.9,-116.5 579.9,-119.1 585.2,-119.1 585.2,-120.6 
		578.3,-120.6 578.3,-110.8 585.3,-110.8 585.3,-112.4 579.9,-112.4 	"/>
	<path fill="#A62C23" d="M594.6-114.4c1.4-0.4,2.1-1.4,2.1-3.1c0-1.1-0.3-1.9-1-2.4c-0.6-0.5-1.7-0.8-3.2-0.8h-3.6v9.8h1.7v-3.3h2.2
		l2.3,3.3h2.1L594.6-114.4z M592.6-115.6h-2.1v-3.5h2.1c0.9,0,1.5,0.1,1.8,0.4c0.3,0.2,0.5,0.7,0.5,1.3c0,0.6-0.2,1.1-0.5,1.4
		C594.1-115.8,593.5-115.6,592.6-115.6z"/>
	<path fill="#A62C23" d="M519.2-104.9h21v-21h-21V-104.9z M520.2-124.9h19v19h-19V-124.9z"/>
</g>
<g>
	<polygon fill="#58595B" points="476.2,-210.1 479.1,-210.1 479.1,-201.8 480.8,-201.8 480.8,-210.1 483.7,-210.1 483.7,-211.6 
		476.2,-211.6 	"/>
	<path fill="#58595B" d="M494.7-208.4c0-1.1-0.3-1.9-1-2.4c-0.6-0.5-1.7-0.8-3.2-0.8h-3.6v9.8h1.7v-3.3h2.2l2.3,3.3h2.1l-2.6-3.6
		C494-205.8,494.7-206.8,494.7-208.4z M490.6-206.6h-2.1v-3.5h2.1c0.9,0,1.5,0.1,1.8,0.4c0.3,0.2,0.5,0.7,0.5,1.3
		c0,0.6-0.2,1.1-0.5,1.4C492.2-206.8,491.6-206.6,490.6-206.6z"/>
	<polygon fill="#58595B" points="500.2,-206 504.9,-206 504.9,-207.5 500.2,-207.5 500.2,-210.1 505.4,-210.1 505.4,-211.6 
		498.5,-211.6 498.5,-201.8 505.6,-201.8 505.6,-203.4 500.2,-203.4 	"/>
	<polygon fill="#58595B" points="516.4,-204.3 510.7,-211.6 509.1,-211.6 509.1,-201.8 510.7,-201.8 510.7,-209 516.3,-201.8 
		518.1,-201.8 518.1,-211.6 516.4,-211.6 	"/>
	<polygon fill="#58595B" points="521.3,-210.1 524.2,-210.1 524.2,-201.8 525.9,-201.8 525.9,-210.1 528.8,-210.1 528.8,-211.6 
		521.3,-211.6 	"/>
	<polygon fill="#58595B" points="533.7,-211.6 532,-211.6 532,-201.8 538.2,-201.8 538.2,-203.4 533.7,-203.4 	"/>
	<path fill="#58595B" d="M547.6-206.2c0,0.9-0.2,1.6-0.7,2.1c-0.4,0.5-1.1,0.8-1.8,0.8c-0.8,0-1.4-0.3-1.8-0.8
		c-0.4-0.5-0.7-1.2-0.7-2.1v-5.4H541v5.5c0,1.4,0.4,2.5,1.2,3.3c0.8,0.8,1.8,1.1,3,1.1c1.2,0,2.2-0.4,3-1.1c0.8-0.8,1.2-1.8,1.2-3.3
		v-5.5h-1.7V-206.2z"/>
	<polygon fill="#58595B" points="552.4,-210.1 555.3,-210.1 555.3,-201.8 557,-201.8 557,-210.1 559.9,-210.1 559.9,-211.6 
		552.4,-211.6 	"/>
	<polygon fill="#58595B" points="568.7,-205.5 565.7,-211.6 563.1,-211.6 563.1,-201.8 564.8,-201.8 564.8,-209.5 568.2,-202.7 
		569.1,-202.7 572.5,-209.5 572.5,-201.8 574.2,-201.8 574.2,-211.6 571.6,-211.6 	"/>
	<polygon fill="#58595B" points="579.9,-206 584.6,-206 584.6,-207.5 579.9,-207.5 579.9,-210.1 585.2,-210.1 585.2,-211.6 
		578.3,-211.6 578.3,-201.8 585.3,-201.8 585.3,-203.4 579.9,-203.4 	"/>
	<path fill="#58595B" d="M594.6-205.4c1.4-0.4,2.1-1.4,2.1-3.1c0-1.1-0.3-1.9-1-2.4c-0.6-0.5-1.7-0.8-3.2-0.8h-3.6v9.8h1.7v-3.3h2.2
		l2.3,3.3h2.1L594.6-205.4z M592.6-206.6h-2.1v-3.5h2.1c0.9,0,1.5,0.1,1.8,0.4c0.3,0.2,0.5,0.7,0.5,1.3c0,0.6-0.2,1.1-0.5,1.4
		C594.1-206.8,593.5-206.6,592.6-206.6z"/>
	<path fill="#58595B" d="M519.2-195.9h21v-21h-21V-195.9z M520.2-215.9h19v19h-19V-215.9z"/>
</g>
<polygon fill="#A62C23" points="447.1,-119.8 450,-119.8 450,-111.5 451.7,-111.5 451.7,-119.8 454.7,-119.8 454.7,-121.3 
	447.1,-121.3 "/>
<polygon fill="#A62C23" points="459.5,-121.3 457.8,-121.3 457.8,-111.5 464,-111.5 464,-113.1 459.5,-113.1 "/>
<path fill="#A62C23" d="M445-105.6h21v-21h-21V-105.6z M446-125.6h19v19h-19V-125.6z"/>
<polygon fill="#58595B" points="448.8,-208.3 451.7,-208.3 451.7,-200 453.4,-200 453.4,-208.3 456.3,-208.3 456.3,-209.8 
	448.8,-209.8 "/>
<polygon fill="#58595B" points="461.2,-209.8 459.5,-209.8 459.5,-200 465.7,-200 465.7,-201.6 461.2,-201.6 "/>
<path fill="#58595B" d="M446.7-194h21v-21h-21V-194z M447.7-214h19v19h-19V-214z"/>
<polygon fill="#FFFFFF" points="447.9,-149.3 450.9,-149.3 450.9,-141 452.5,-141 452.5,-149.3 455.5,-149.3 455.5,-150.8 
	447.9,-150.8 "/>
<polygon fill="#FFFFFF" points="460.4,-150.8 458.7,-150.8 458.7,-141 464.8,-141 464.8,-142.6 460.4,-142.6 "/>
<path fill="#FFFFFF" d="M445.9-135h21v-21h-21V-135z M446.9-155h19v19h-19V-155z"/>
<polygon points="447.8,-180.3 450.7,-180.3 450.7,-172 452.4,-172 452.4,-180.3 455.3,-180.3 455.3,-181.8 447.8,-181.8 "/>
<polygon points="460.2,-181.8 458.5,-181.8 458.5,-172 464.7,-172 464.7,-173.6 460.2,-173.6 "/>
<path d="M445.7-166h21v-21h-21V-166z M446.7-186h19v19h-19V-186z"/>
<text transform="matrix(1 0 0 1 139.3426 188.8783)" fill="#A62C23" font-family="'Montserrat-Regular'" font-size="14">EDUCATION</text>
<text transform="matrix(1 0 0 1 139.3428 277.3785)" fill="#A62C23" font-family="'Montserrat-Regular'" font-size="14">EXPERIENCE</text>
<text transform="matrix(1 0 0 1 139.3427 548.1157)" fill="#A62C23" font-family="'Montserrat-Regular'" font-size="14">AWARDS</text>
<g>
	<polygon fill="#656565" points="156.2,126.9 161.7,126.9 161.7,99.3 171.6,99.3 171.6,94.3 146.3,94.3 146.3,99.3 156.2,99.3 	"/>
	<polygon fill="#656565" points="202.6,121.7 187.7,121.7 187.7,94.3 182.2,94.3 182.2,126.9 202.6,126.9 	"/>
	<path fill="#656565" d="M139.3,76.8v70h70v-70H139.3z M206,143.5h-63.3V80.1H206V143.5z"/>
</g>
<text transform="matrix(1 0 0 1 219.5667 110.0266)" fill="#656565" font-family="'Montserrat-Bold'" font-size="24">Trent Lutmer</text>
<text transform="matrix(1 0 0 1 219.5664 130.6045)" fill="#BDBBBB" font-family="'Montserrat-Regular'" font-size="12"> User Experience Designer</text>
<rect x="279.5" y="177" fill="none" width="349" height="76.5"/>
<text transform="matrix(1 0 0 1 279.5125 185.385)"><tspan x="0" y="0" fill="#656565" font-family="'PTSans-Regular'" font-size="12">Dakota State University in Madison, SD</tspan><tspan x="0" y="14.4" fill="#656565" font-family="'PTSans-Regular'" font-size="12">Bachelor of Arts and Science in Digital Arts and Design</tspan><tspan x="0" y="28.8" fill="#BDBCBC" font-family="'PTSans-Regular'" font-size="12">Web design is an interdisciplinary degree with an integrated</tspan><tspan x="0" y="43.2" fill="#BEBEBE" font-family="'PTSans-Regular'" font-size="12">curriculum that incorporated aspects of computer science and </tspan><tspan x="0" y="57.6" fill="#BEBEBE" font-family="'PTSans-Regular'" font-size="12">various disciplines of art.</tspan></text>
<rect x="439.9" y="-73.7" fill="#656565" width="40" height="40"/>
<rect x="488.9" y="-73.7" fill="#BEBEBE" width="40" height="40"/>
<rect x="448.7" y="91.3" fill="none" width="179.8" height="41"/>
<text transform="matrix(1 0 0 1 448.6672 99.7023)"><tspan x="0" y="0" fill="#656565" font-family="'PTSans-Regular'" font-size="12">Twitter: @trentlutmer</tspan><tspan x="0" y="14.4" fill="#656565" font-family="'PTSans-Regular'" font-size="12">LinkedIn: linkedin.com/trentlutmer</tspan><tspan x="0" y="28.8" fill="#656565" font-family="'PTSans-Regular'" font-size="12">Email: trent.lutmer@gmail.com</tspan></text>
<rect x="279.5" y="287.5" fill="none" width="349" height="69.1"/>
<text transform="matrix(1 0 0 1 279.5125 295.8855)"><tspan x="0" y="0" fill="#656565" font-family="'PTSans-Regular'" font-size="12">User Experience Professional in Dublin, OH</tspan><tspan x="0" y="14.4" fill="#BEBEBE" font-family="'PTSans-Regular'" font-size="12">Worked on several projects within the Industry Solutions - B2B and </tspan><tspan x="0" y="28.8" fill="#BEBEBE" font-family="'PTSans-Regular'" font-size="12">Commerce portfolio.  Reponsibility included interaction, research, </tspan><tspan x="0" y="43.2" fill="#BEBEBE" font-family="'PTSans-Regular'" font-size="12">visual, and technical design skills.  Created wireframes, sketches, </tspan><tspan x="0" y="57.6" fill="#BEBEBE" font-family="'PTSans-Regular'" font-size="12">coded HTML/CSS prototypes, and crafted personas.</tspan></text>
<rect x="279.5" y="447.6" fill="none" width="349" height="69.5"/>
<text transform="matrix(1 0 0 1 279.5125 456.0193)"><tspan x="0" y="0" fill="#656565" font-family="'PTSans-Regular'" font-size="12">Web Assistant in Madison, SD</tspan><tspan x="0" y="14.4" fill="#BEBEBE" font-family="'PTSans-Regular'" font-size="12">Sketched, designed and coded pages in HTML and CSS that resulted </tspan><tspan x="0" y="28.8" fill="#BEBEBE" font-family="'PTSans-Regular'" font-size="12">in a mobile-friendly redesign of Dakota State University’s academic </tspan><tspan x="0" y="43.2" fill="#BEBEBE" font-family="'PTSans-Regular'" font-size="12">website.  Created and maintained digital content across various </tspan><tspan x="0" y="57.6" fill="#BEBEBE" font-family="'PTSans-Regular'" font-size="12">sites affiliated with the university.</tspan></text>
<rect x="279.5" y="375.9" fill="none" width="349" height="58.1"/>
<text transform="matrix(1 0 0 1 279.5125 384.2899)"><tspan x="0" y="0" fill="#656565" font-family="'PTSans-Regular'" font-size="12">Trent Lutmer Design</tspan><tspan x="0" y="14.4" fill="#BEBEBE" font-family="'PTSans-Regular'" font-size="12">Web and mobile design work.  Created logos, event posters, edited </tspan><tspan x="0" y="28.8" fill="#BEBEBE" font-family="'PTSans-Regular'" font-size="12">videos, photos, for local clients in Minnesota, South Dakota and </tspan><tspan x="0" y="43.2" fill="#BEBEBE" font-family="'PTSans-Regular'" font-size="12">Ohio.</tspan></text>
<g>
	<text transform="matrix(1 0 0 1 139.3427 209.1849)" fill="#BDBBBB" font-family="'PTSans-Regular'" font-size="12">2007 - 2011</text>
</g>
<g>
	<text transform="matrix(1 0 0 1 139.3427 297.6853)"><tspan x="0" y="0" fill="#656565" font-family="'PTSans-Bold'" font-size="12">IBM</tspan><tspan x="0" y="14.4" fill="#BEBEBE" font-family="'PTSans-Regular'" font-size="12">2012 - Present</tspan></text>
</g>
<g>
	<text transform="matrix(1 0 0 1 139.3427 386.089)"><tspan x="0" y="0" fill="#656565" font-family="'PTSans-Bold'" font-size="12">Freelance</tspan><tspan x="0" y="14.4" fill="#BEBEBE" font-family="'PTSans-Regular'" font-size="12">2006 - Present</tspan><tspan x="0" y="28.8" fill="none" font-family="'PTSans-Regular'" font-size="12">2006 - Present</tspan></text>
</g>
<g>
	<text transform="matrix(1 0 0 1 139.3427 457.8191)"><tspan x="0" y="0" fill="#656565" font-family="'PTSans-Bold'" font-size="12">Dakota State University</tspan><tspan x="0" y="14.4" fill="#BEBEBE" font-family="'PTSans-Regular'" font-size="12">2011 - 2012</tspan></text>
</g>
<g>
	<text transform="matrix(1 0 0 1 442.3425 601.1157)" fill="#A62C23" font-family="'Montserrat-Regular'" font-size="14">TECHNICAL SKILLS</text>
</g>
<g>
	<rect x="279.5" y="558.6" fill="none" width="349" height="15.5"/>
	<text transform="matrix(1 0 0 1 279.5125 567.0193)" fill="#656565" font-family="'PTSans-Regular'" font-size="12">IBM Excellence and Eminence Award</text>
</g>
<g>
	<text transform="matrix(1 0 0 1 139.3427 568.8191)" fill="#BEBEBE" font-family="'PTSans-Regular'" font-size="12">Feb 2014</text>
</g>
<g>
	<text transform="matrix(1 0 0 1 139.3425 601.1157)" fill="#A62C23" font-family="'Montserrat-Regular'" font-size="14">PROFICENCIES</text>
</g>
<g>
	<rect x="442.3" y="616.3" fill="none" width="145.1" height="84.9"/>
	<text transform="matrix(1 0 0 1 442.3432 624.7072)"><tspan x="0" y="0" fill="#656565" font-family="'PTSans-Regular'" font-size="12">Adobe Creative Suite</tspan><tspan x="107.3" y="0" fill="#656565" font-family="'PTSans-Regular'" font-size="12" letter-spacing="-2">	</tspan><tspan x="108" y="0" fill="#656565" font-family="'PTSans-Regular'" font-size="12" letter-spacing="32">	</tspan><tspan x="0" y="14.4" fill="#656565" font-family="'PTSans-Regular'" font-size="12">Axure</tspan><tspan x="29.8" y="14.4" fill="#656565" font-family="'PTSans-Regular'" font-size="12" letter-spacing="2">	</tspan><tspan x="0" y="28.8" fill="#656565" font-family="'PTSans-Regular'" font-size="12">HTML</tspan><tspan x="0" y="43.2" fill="#656565" font-family="'PTSans-Regular'" font-size="12">CSS/LESS/SASS</tspan><tspan x="0" y="57.6" fill="#656565" font-family="'PTSans-Regular'" font-size="12">Mac OS and Windows</tspan><tspan x="0" y="72" fill="#656565" font-family="'PTSans-Regular'" font-size="12">iOS and Android</tspan></text>
</g>
<g>
	<rect x="139.3" y="616.3" fill="none" width="154.2" height="98"/>
	<text transform="matrix(1 0 0 1 139.3424 624.7072)"><tspan x="0" y="0" fill="#656565" font-family="'PTSans-Regular'" font-size="12">Brand Design</tspan><tspan x="0" y="14.4" fill="#656565" font-family="'PTSans-Regular'" font-size="12">Interaction Design</tspan><tspan x="0" y="28.8" fill="#656565" font-family="'PTSans-Regular'" font-size="12">Prototyping</tspan><tspan x="0" y="43.2" fill="#656565" font-family="'PTSans-Regular'" font-size="12">Sketching</tspan><tspan x="0" y="57.6" fill="#656565" font-family="'PTSans-Regular'" font-size="12">Storytelling</tspan><tspan x="0" y="72" fill="#656565" font-family="'PTSans-Regular'" font-size="12">User-focused Design</tspan></text>
</g>
<g>
</g>
<g>
	<rect x="277.3" y="616.3" fill="none" width="154.2" height="83.3"/>
	<text transform="matrix(1 0 0 1 277.3424 624.7072)"><tspan x="0" y="0" fill="#656565" font-family="'PTSans-Regular'" font-size="12">User Research</tspan><tspan x="0" y="14.4" fill="#656565" font-family="'PTSans-Regular'" font-size="12">User Testing</tspan><tspan x="0" y="28.8" fill="#656565" font-family="'PTSans-Regular'" font-size="12">Web and Mobile Design</tspan><tspan x="0" y="43.2" fill="#656565" font-family="'PTSans-Regular'" font-size="12">Wireframing</tspan><tspan x="0" y="57.6" fill="#656565" font-family="'PTSans-Regular'" font-size="12">Visual Design</tspan></text>
</g>
<rect x="908.5" y="37.8" fill="none" width="349" height="216.5"/>
<text transform="matrix(1 0 0 1 908.5129 46.2006)"><tspan x="0" y="0" fill="#656565" font-family="'PTSans-Regular'" font-size="12">Emptoris Strategic Supply Management - Contract Management</tspan><tspan x="0" y="14.4" fill="#656565" font-family="'PTSans-Regular'" font-size="12">Interaction Designer, Technical Designer</tspan><tspan x="0" y="28.8" fill="#BDBCBC" font-family="'PTSans-Regular'" font-size="12">Worked to better control over the contract managment community</tspan><tspan x="0" y="43.2" fill="#BDBCBC" font-family="'PTSans-Regular'" font-size="12">through better organization, management, and visibility into their </tspan><tspan x="0" y="57.6" fill="#BDBCBC" font-family="'PTSans-Regular'" font-size="12">legal documents.</tspan><tspan x="0" y="86.4" fill="#BEBEBE" font-family="'PTSans-Regular'" font-size="12">Created wireframes, sketched, designed and coded </tspan><tspan x="262.2" y="86.4" fill="#BDBCBC" font-family="'PTSans-Regular'" font-size="12">UI components </tspan><tspan x="0" y="100.8" fill="#BDBCBC" font-family="'PTSans-Regular'" font-size="12">and prototypes to ensure design predicitablitiy across the product.  </tspan><tspan x="0" y="115.2" fill="#BDBCBC" font-family="'PTSans-Regular'" font-size="12">Assisted in interaction, user research, user testing, crafting perso</tspan><tspan x="330.1" y="115.2" fill="#BDBCBC" font-family="'PTSans-Regular'" font-size="12">-</tspan><tspan x="0" y="129.6" fill="#BDBCBC" font-family="'PTSans-Regular'" font-size="12">nas, and visual design work.</tspan><tspan x="0" y="158.4" fill="#BEBEBE" font-family="'PTSans-Regular'" font-size="12">Met with the product management, development and other key </tspan><tspan x="0" y="172.8" fill="#BEBEBE" font-family="'PTSans-Regular'" font-size="12">stake holders on a regular basis to discuss requirements and </tspan><tspan x="0" y="187.2" fill="#BEBEBE" font-family="'PTSans-Regular'" font-size="12">designs. </tspan></text>
<g>
	<text transform="matrix(1 0 0 1 768.3427 48.0004)" fill="#BDBBBB" font-family="'PTSans-Regular'" font-size="12">Jun 2014 – Present</text>
</g>
<rect x="908.5" y="255.8" fill="none" width="351" height="188"/>
<text transform="matrix(1 0 0 1 908.5129 264.2006)"><tspan x="0" y="0" fill="#656565" font-family="'PTSans-Regular'" font-size="12">Multi-Enterprise Relationship Management</tspan><tspan x="0" y="14.4" fill="#656565" font-family="'PTSans-Regular'" font-size="12">Team Lead, Interaction Designer, Design Research, Visual Designer</tspan><tspan x="0" y="28.8" fill="#BDBCBC" font-family="'PTSans-Regular'" font-size="12">Worked to advance businesses by optimizing trading partner </tspan><tspan x="0" y="43.2" fill="#BDBCBC" font-family="'PTSans-Regular'" font-size="12">relationships and the trading parter onboarding process in an auto</tspan><tspan x="340.8" y="43.2" fill="#BDBCBC" font-family="'PTSans-Regular'" font-size="12">-</tspan><tspan x="0" y="57.6" fill="#BDBCBC" font-family="'PTSans-Regular'" font-size="12">mated application.  </tspan><tspan x="0" y="86.4" fill="#BEBEBE" font-family="'PTSans-Regular'" font-size="12">Led a team to create wireframes, sketched, and designed a simple </tspan><tspan x="0" y="100.8" fill="#BEBEBE" font-family="'PTSans-Regular'" font-size="12">user experience and interface.  </tspan><tspan x="160.9" y="100.8" fill="#BDBCBC" font-family="'PTSans-Regular'" font-size="12">Assisted in interaction, user research, </tspan><tspan x="0" y="115.2" fill="#BDBCBC" font-family="'PTSans-Regular'" font-size="12">crafting personas, and visual design work.</tspan><tspan x="0" y="144" fill="#BEBEBE" font-family="'PTSans-Regular'" font-size="12">Met with the product management, development and other key </tspan><tspan x="0" y="158.4" fill="#BEBEBE" font-family="'PTSans-Regular'" font-size="12">stake holders on a regular basis to discuss requirements and </tspan><tspan x="0" y="172.8" fill="#BEBEBE" font-family="'PTSans-Regular'" font-size="12">designs. </tspan></text>
<g>
	<text transform="matrix(1 0 0 1 770.9345 266.0004)" fill="#BDBBBB" font-family="'PTSans-Regular'" font-size="12">May 2013 – Jun 2014</text>
</g>
<rect x="908.5" y="459.8" fill="none" width="349" height="97.5"/>
<text transform="matrix(1 0 0 1 908.5129 468.2006)"><tspan x="0" y="0" fill="#656565" font-family="'PTSans-Regular'" font-size="12">Multi-Enterprise Gateway</tspan><tspan x="0" y="14.4" fill="#656565" font-family="'PTSans-Regular'" font-size="12">Interaction Designer, Visual Designer</tspan><tspan x="0" y="28.8" fill="#BDBCBC" font-family="'PTSans-Regular'" font-size="12">Worked to enhance the organization of business’s digital certif</tspan><tspan x="323" y="28.8" fill="#BDBCBC" font-family="'PTSans-Regular'" font-size="12">-</tspan><tspan x="0" y="43.2" fill="#BDBCBC" font-family="'PTSans-Regular'" font-size="12">cates through exchange profiles.</tspan><tspan x="0" y="72" fill="#BEBEBE" font-family="'PTSans-Regular'" font-size="12">Created wireframes, sketches, and designs that told a story to our </tspan><tspan x="0" y="86.4" fill="#BEBEBE" font-family="'PTSans-Regular'" font-size="12">users.  Worked on interaction and </tspan><tspan x="174.9" y="86.4" fill="#BDBCBC" font-family="'PTSans-Regular'" font-size="12">visual design work.</tspan></text>
<g>
	<text transform="matrix(1 0 0 1 770.9345 470.0004)" fill="#BDBBBB" font-family="'PTSans-Regular'" font-size="12">Sept 2012 – May 2013</text>
</g>
<g>
	<text transform="matrix(1 0 0 1 771.0253 588.9805)" fill="#A62C23" font-family="'Montserrat-Regular'" font-size="14">Presentations</text>
</g>
<g>
	<rect x="908.6" y="671.5" fill="none" width="157.4" height="76.5"/>
	<text transform="matrix(1 0 0 1 908.6038 679.9277)"><tspan x="0" y="0" fill="#656565" font-family="'PTSans-Regular'" font-size="12">Industry Solutions Portfolio</tspan><tspan x="0" y="14.4" fill="#656565" font-family="'PTSans-Regular'" font-size="12">10x Pattern Library</tspan><tspan x="0" y="28.8" fill="#656565" font-family="'PTSans-Regular'" font-size="12">Online Virtual Appliance</tspan><tspan x="0" y="43.2" fill="#656565" font-family="'PTSans-Regular'" font-size="12">WTX</tspan><tspan x="0" y="57.6" fill="#656565" font-family="'PTSans-Regular'" font-size="12">Quickfile/Sterling Call Center</tspan></text>
</g>
<g>
	<text transform="matrix(1 0 0 1 771.4337 681.7277)"><tspan x="0" y="0" fill="#BDBBBB" font-family="'PTSans-Regular'" font-size="12">Jul 2014</tspan><tspan x="0" y="14.4" fill="#BDBBBB" font-family="'PTSans-Regular'" font-size="12">May - Jul 2014</tspan><tspan x="0" y="28.8" fill="#BDBBBB" font-family="'PTSans-Regular'" font-size="12">Aug 2013</tspan><tspan x="0" y="43.2" fill="#BDBBBB" font-family="'PTSans-Regular'" font-size="12">Jul - Aug 2013</tspan><tspan x="0" y="57.6" fill="#BDBBBB" font-family="'PTSans-Regular'" font-size="12">Oct 2012</tspan></text>
</g>
<g>
	<text transform="matrix(1 0 0 1 771.0251 658.8429)" fill="#A62C23" font-family="'Montserrat-Regular'" font-size="14">Side Projects</text>
</g>
<g>
	<rect x="908.6" y="599.4" fill="none" width="269.4" height="26.1"/>
	<text transform="matrix(1 0 0 1 908.6033 607.8206)"><tspan x="0" y="0" fill="#656565" font-family="'PTSans-Regular'" font-size="12">Amplify and Empower Conference in San Diego, CA</tspan><tspan x="0" y="14.4" fill="#656565" font-family="'PTSans-Regular'" font-size="12">Smarter Commerce Conference in Tampa, FL</tspan></text>
</g>
<g>
	<text transform="matrix(1 0 0 1 771.0259 609.6202)"><tspan x="0" y="0" fill="#BDBBBB" font-family="'PTSans-Regular'" font-size="12">May 2015</tspan><tspan x="0" y="14.4" fill="#BDBBBB" font-family="'PTSans-Regular'" font-size="12">May 2014</tspan></text>
</g>
<path fill="#434343" d="M763.9-158.7v70h70v-70H763.9z M795.9-135.7h-10v28h-5v-28h-10v-5h25V-135.7z M826.9-107.7h-20v-33h5v28h15
	V-107.7z"/>
<g>
	<polygon fill="#434343" points="12,35.8 15.9,35.8 15.9,16.1 23,16.1 23,12.5 4.9,12.5 4.9,16.1 12,16.1 	"/>
	<polygon fill="#434343" points="45.2,32 34.5,32 34.5,12.5 30.6,12.5 30.6,35.8 45.2,35.8 	"/>
	<path fill="#434343" d="M0,0v50h50V0H0z M47.6,47.6H2.4V2.4h45.2V47.6z"/>
</g>
</svg>
