<svg width="800" height="270" viewBox="0 0 800 270" version="1.1" xmlns="http://www.w3.org/2000/svg" xmlns:xlink="http://www.w3.org/1999/xlink">
<title>mountains</title>
<desc>Created using Figma</desc>
<g id="Canvas" transform="translate(17264 -11383)">
<clipPath id="clip-0" clip-rule="evenodd">
<path d="M -17264 11383L -16464 11383L -16464 11653L -17264 11653L -17264 11383Z" fill="#FFFFFF"/>
</clipPath>
<g id="mountains" clip-path="url(#clip-0)">
<path d="M -17264 11383L -16464 11383L -16464 11653L -17264 11653L -17264 11383Z" fill="#FFFFFF"/>
<g id="Group">
<g id="Ellipse">
<use xlink:href="#path0_fill" transform="translate(-17034.1 11435)" fill="url(#paint0_linear)"/>
</g>
<g id="Ellipse">
<use xlink:href="#path1_fill" transform="translate(-17009.2 11403)" fill="url(#paint1_linear)"/>
</g>
<g id="Vector">
<use xlink:href="#path2_fill" transform="translate(-16996.7 11448)" fill="#F2F2F2"/>
<use xlink:href="#path3_stroke" transform="translate(-16996.7 11448)" fill="#E0E0E0"/>
</g>
<g id="Vector 4.12">
<use xlink:href="#path4_fill" transform="matrix(-1 0 0 1 -16788.3 11522)" fill="#E0E0E0"/>
<use xlink:href="#path5_stroke" transform="matrix(-1 0 0 1 -16788.3 11522)" fill="#E0E0E0"/>
</g>
<g id="Vector">
<use xlink:href="#path6_fill" transform="translate(-16858.3 11485.8)" fill="#E0E0E0"/>
<use xlink:href="#path7_stroke" transform="translate(-16858.3 11485.8)" fill="#E0E0E0"/>
</g>
<g id="Vector 4.6">
<use xlink:href="#path8_fill" transform="matrix(-1 0 0 1 -17039.9 11526)" fill="#F2F2F2"/>
<use xlink:href="#path9_stroke" transform="matrix(-1 0 0 1 -17039.9 11526)" fill="#E0E0E0"/>
</g>
<g id="Vector 4.11">
<use xlink:href="#path10_fill" transform="matrix(-1 0 0 1 -17147.1 11558)" fill="#E0E0E0"/>
<use xlink:href="#path11_stroke" transform="matrix(-1 0 0 1 -17147.1 11558)" fill="#E0E0E0"/>
</g>
<g id="Vector 3">
<use xlink:href="#path12_fill" transform="translate(-17236 11458)" fill="#F2F2F2"/>
<use xlink:href="#path13_stroke" transform="translate(-17236 11458)" fill="#E0E0E0"/>
</g>
<g id="Vector 9.2">
<use xlink:href="#path14_fill" transform="translate(-17100.1 11547)" fill="#E0E0E0"/>
</g>
<g id="Vector 6">
<use xlink:href="#path15_fill" transform="translate(-17088.1 11458)" fill="#FFFFFF"/>
<use xlink:href="#path16_stroke" transform="translate(-17088.1 11458)" fill="#E0E0E0"/>
</g>
<g id="Vector 4">
<use xlink:href="#path17_fill" transform="translate(-17133.1 11556)" fill="#F2F2F2"/>
<use xlink:href="#path18_stroke" transform="translate(-17133.1 11556)" fill="#E0E0E0"/>
</g>
<g id="Vector 5">
<use xlink:href="#path19_fill" transform="translate(-16926.7 11522.5)" fill="#F2F2F2"/>
<use xlink:href="#path20_stroke" transform="translate(-16926.7 11522.5)" fill="#E0E0E0"/>
</g>
<g id="Vector 5.1">
<use xlink:href="#path21_fill" transform="translate(-16927.2 11557)" fill="#E0E0E0"/>
<use xlink:href="#path22_stroke" transform="translate(-16927.2 11557)" fill="#E0E0E0"/>
</g>
<g id="Vector 4.3">
<use xlink:href="#path23_fill" transform="translate(-17025.1 11548)" fill="#F2F2F2"/>
<use xlink:href="#path24_stroke" transform="translate(-17025.1 11548)" fill="#E0E0E0"/>
</g>
<g id="Vector 4.13">
<use xlink:href="#path25_fill" transform="translate(-17037.1 11600)" fill="#E0E0E0"/>
<use xlink:href="#path26_stroke" transform="translate(-17037.1 11600)" fill="#E0E0E0"/>
</g>
<g id="Vector 4.14">
<use xlink:href="#path27_fill" transform="translate(-16916.2 11589)" fill="#E0E0E0"/>
<use xlink:href="#path28_stroke" transform="translate(-16916.2 11589)" fill="#E0E0E0"/>
</g>
<g id="Vector 4.4">
<use xlink:href="#path29_fill" transform="translate(-16910.2 11571)" fill="#F2F2F2"/>
<use xlink:href="#path30_stroke" transform="translate(-16910.2 11571)" fill="#E0E0E0"/>
</g>
<g id="Vector 4.7">
<use xlink:href="#path31_fill" transform="translate(-16682.4 11526)" fill="#F2F2F2"/>
<use xlink:href="#path32_stroke" transform="translate(-16682.4 11526)" fill="#E0E0E0"/>
</g>
<g id="Vector 3.1">
<use xlink:href="#path33_fill" transform="matrix(-1 0 0 1 -16483 11469)" fill="#F2F2F2"/>
<use xlink:href="#path34_stroke" transform="matrix(-1 0 0 1 -16483 11469)" fill="#E0E0E0"/>
</g>
<g id="Vector 3.3">
<use xlink:href="#path35_fill" transform="matrix(-1 0 0 1 -16483.5 11526)" fill="#E0E0E0"/>
<use xlink:href="#path36_stroke" transform="matrix(-1 0 0 1 -16483.5 11526)" fill="#E0E0E0"/>
</g>
<g id="Vector 4.8">
<use xlink:href="#path37_fill" transform="matrix(-1 0 0 1 -16535.5 11553)" fill="#F2F2F2"/>
<use xlink:href="#path38_stroke" transform="matrix(-1 0 0 1 -16535.5 11553)" fill="#E0E0E0"/>
</g>
<g id="Vector 4.9">
<use xlink:href="#path39_fill" transform="matrix(-1 0 0 1 -16473 11589)" fill="#E0E0E0"/>
<use xlink:href="#path40_stroke" transform="matrix(-1 0 0 1 -16473 11589)" fill="#E0E0E0"/>
</g>
<g id="Vector 4.19">
<use xlink:href="#path41_fill" transform="matrix(-1 0 0 1 -16725.3 11600)" fill="#E0E0E0"/>
<use xlink:href="#path42_stroke" transform="matrix(-1 0 0 1 -16725.3 11600)" fill="#E0E0E0"/>
</g>
<g id="Vector 7">
<use xlink:href="#path43_fill" transform="translate(-16878.2 11448)" fill="#FFFFFF"/>
<use xlink:href="#path44_stroke" transform="translate(-16878.2 11448)" fill="#E0E0E0"/>
</g>
<g id="Vector 8">
<use xlink:href="#path45_fill" transform="translate(-16708.5 11469)" fill="#FFFFFF"/>
<use xlink:href="#path46_stroke" transform="translate(-16708.5 11469)" fill="#E0E0E0"/>
</g>
<g id="Vector 9">
<use xlink:href="#path47_fill" transform="translate(-17164.1 11483)" fill="#E0E0E0"/>
</g>
<g id="Vector 9.1">
<use xlink:href="#path48_fill" transform="translate(-17107.4 11519)" fill="#E0E0E0"/>
</g>
<g id="Vector 4.5">
<use xlink:href="#path49_fill" transform="translate(-17210 11520)" fill="#F2F2F2"/>
<use xlink:href="#path50_stroke" transform="translate(-17210 11520)" fill="#E0E0E0"/>
</g>
<g id="Vector 4.10">
<use xlink:href="#path51_fill" transform="matrix(-1 0 0 1 -17068.1 11520)" fill="#E0E0E0"/>
<use xlink:href="#path52_stroke" transform="matrix(-1 0 0 1 -17068.1 11520)" fill="#E0E0E0"/>
</g>
<g id="Vector 4.15">
<use xlink:href="#path53_fill" transform="matrix(-1 0 0 1 -17016.2 11600)" fill="#E0E0E0"/>
<use xlink:href="#path54_stroke" transform="matrix(-1 0 0 1 -17016.2 11600)" fill="#E0E0E0"/>
</g>
</g>
</g>
</g>
<defs>
<linearGradient id="paint0_linear" x1="0" y1="0" x2="1" y2="0" gradientUnits="userSpaceOnUse" gradientTransform="matrix(-61.5 -82.5 82.4472 -61.4607 53.419 88.2303)">
<stop offset="0" stop-color="#0A3063"/>
<stop offset="0.720472" stop-color="#0A3063" stop-opacity="0.6"/>
<stop offset="1" stop-color="#0A3063" stop-opacity="0"/>
</linearGradient>
<linearGradient id="paint1_linear" x1="0" y1="0" x2="1" y2="0" gradientUnits="userSpaceOnUse" gradientTransform="matrix(11.5 13 -7.02878 6.21777 0.174547 -3.10889)">
<stop offset="0" stop-color="#0A3063" stop-opacity="0.5"/>
<stop offset="1" stop-color="#0A3063"/>
</linearGradient>
<path id="path0_fill" d="M 175.887 88C 175.887 136.601 136.514 176 87.9437 176C 39.3737 176 0 136.601 0 88C 0 39.3989 39.3737 0 87.9437 0C 136.514 0 175.887 39.3989 175.887 88Z"/>
<path id="path1_fill" d="M 24.984 12.5C 24.984 19.4036 19.3911 25 12.492 25C 5.59286 25 0 19.4036 0 12.5C 0 5.59644 5.59286 0 12.492 0C 19.3911 0 24.984 5.59644 24.984 12.5Z"/>
<path id="path2_fill" d="M 154.901 20.5L 135.413 0L 107.931 23L 73.453 60L 52.9661 71.5L 33.9782 75.5L 0 97.5L 0 134.5L 60.4613 134.5L 264.331 134.5L 264.331 67L 249.34 60L 210.365 45.5L 180.884 36L 154.901 20.5Z"/>
<path id="path3_stroke" d="M 135.413 0L 136.863 -1.37796L 135.569 -2.73863L 134.13 -1.53375L 135.413 0ZM 154.901 20.5L 153.451 21.878L 153.64 22.077L 153.876 22.2176L 154.901 20.5ZM 180.884 36L 179.86 37.7176L 180.055 37.834L 180.271 37.9036L 180.884 36ZM 210.365 45.5L 211.063 43.6255L 211.021 43.61L 210.979 43.5964L 210.365 45.5ZM 249.34 60L 250.187 58.1878L 250.113 58.1537L 250.038 58.1255L 249.34 60ZM 107.931 23L 106.647 21.4663L 106.552 21.5458L 106.468 21.6365L 107.931 23ZM 73.453 60L 74.432 61.744L 74.7037 61.5915L 74.9162 61.3635L 73.453 60ZM 52.9661 71.5L 53.3784 73.457L 53.678 73.3939L 53.9451 73.244L 52.9661 71.5ZM 33.9782 75.5L 33.566 73.543L 33.2028 73.6195L 32.8913 73.8212L 33.9782 75.5ZM 0 97.5L -1.08699 95.8212L -2 96.4123L -2 97.5L 0 97.5ZM 0 134.5L -2 134.5L -2 136.5L 0 136.5L 0 134.5ZM 264.331 67L 266.331 67L 266.331 65.7266L 265.177 65.1878L 264.331 67ZM 264.331 134.5L 264.331 136.5L 266.331 136.5L 266.331 134.5L 264.331 134.5ZM 133.964 1.37796L 153.451 21.878L 156.35 19.122L 136.863 -1.37796L 133.964 1.37796ZM 153.876 22.2176L 179.86 37.7176L 181.909 34.2824L 155.925 18.7824L 153.876 22.2176ZM 180.271 37.9036L 209.752 47.4036L 210.979 43.5964L 181.498 34.0964L 180.271 37.9036ZM 209.668 47.3745L 248.643 61.8745L 250.038 58.1255L 211.063 43.6255L 209.668 47.3745ZM 134.13 -1.53375L 106.647 21.4663L 109.214 24.5337L 136.697 1.53375L 134.13 -1.53375ZM 106.468 21.6365L 71.9898 58.6365L 74.9162 61.3635L 109.394 24.3635L 106.468 21.6365ZM 72.474 58.256L 51.9871 69.756L 53.9451 73.244L 74.432 61.744L 72.474 58.256ZM 52.5538 69.543L 33.566 73.543L 34.3905 77.457L 53.3784 73.457L 52.5538 69.543ZM 32.8913 73.8212L -1.08699 95.8212L 1.08699 99.1788L 35.0652 77.1788L 32.8913 73.8212ZM 2 134.5L 2 97.5L -2 97.5L -2 134.5L 2 134.5ZM 60.4613 132.5L 0 132.5L 0 136.5L 60.4613 136.5L 60.4613 132.5ZM 248.494 61.8122L 263.485 68.8122L 265.177 65.1878L 250.187 58.1878L 248.494 61.8122ZM 262.331 67L 262.331 134.5L 266.331 134.5L 266.331 67L 262.331 67ZM 264.331 132.5L 60.4613 132.5L 60.4613 136.5L 264.331 136.5L 264.331 132.5Z"/>
<path id="path4_fill" d="M 125.604 20.8105C 133.415 19.297 137.34 36.8922 160.318 47.2973L 167.893 55.4955L 179.885 70L 0 70L 10.9163 48.2429L 24.7207 37.8378L 31.1178 20.8105L 45.9323 11.3514L 58.3898 11.3514L 71.8575 0L 92.3957 11.3514C 94.1914 11.5091 98.6582 11.7298 102.16 11.3514C 105.661 10.973 121.563 17.4998 125.604 20.8105Z"/>
<path id="path5_stroke" d="M 160.318 47.2973L 161.787 45.9401L 161.513 45.6425L 161.143 45.4754L 160.318 47.2973ZM 125.604 20.8105L 124.336 22.3575L 125.062 22.9526L 125.984 22.774L 125.604 20.8105ZM 102.16 11.3514L 102.375 13.3398L 102.375 13.3398L 102.16 11.3514ZM 92.3957 11.3514L 91.4283 13.1018L 91.7989 13.3067L 92.2208 13.3437L 92.3957 11.3514ZM 71.8575 0L 72.825 -1.75043L 71.6207 -2.41604L 70.5686 -1.52925L 71.8575 0ZM 58.3898 11.3514L 58.3898 13.3514L 59.1203 13.3514L 59.6788 12.8807L 58.3898 11.3514ZM 45.9323 11.3514L 45.9323 9.35141L 45.3482 9.35141L 44.8559 9.66573L 45.9323 11.3514ZM 31.1178 20.8105L 30.0415 19.1248L 29.4799 19.4834L 29.2456 20.1071L 31.1178 20.8105ZM 24.7207 37.8378L 25.9245 39.435L 26.3885 39.0852L 26.5929 38.5412L 24.7207 37.8378ZM 10.9163 48.2429L 9.71247 46.6458L 9.33863 46.9276L 9.12868 47.346L 10.9163 48.2429ZM 0 70L -1.78761 69.1031L -3.24109 72L 0 72L 0 70ZM 179.885 70L 179.885 72L 184.134 72L 181.426 68.7256L 179.885 70ZM 167.893 55.4955L 169.434 54.2211L 169.399 54.1787L 169.362 54.1383L 167.893 55.4955ZM 161.143 45.4754C 149.984 40.4615 143.577 33.7423 138.777 28.2661C 136.386 25.5383 134.357 23.058 132.41 21.343C 130.401 19.5833 128.074 18.2946 125.223 18.847L 125.984 22.774C 127.039 22.5696 128.132 22.9127 129.774 24.3517C 131.478 25.8353 133.331 28.1203 135.769 30.9027C 140.63 36.447 147.675 43.728 159.493 49.1192L 161.143 45.4754ZM 126.871 19.2635C 124.587 17.3918 119.333 14.8354 114.433 12.8446C 111.937 11.8313 109.405 10.9152 107.304 10.2876C 106.243 9.97166 105.221 9.71031 104.382 9.54902C 103.561 9.39193 102.689 9.28256 101.945 9.36299L 102.375 13.3398C 102.506 13.3257 102.897 13.3375 103.631 13.4778C 104.348 13.614 105.175 13.8263 106.16 14.1208C 108.152 14.714 110.504 15.5656 112.927 16.5505C 117.864 18.5561 122.58 20.9185 124.336 22.3575L 126.871 19.2635ZM 101.945 9.36299C 98.5999 9.73064 94.3283 9.51376 92.5706 9.35908L 92.2208 13.3437C 94.0546 13.5044 98.7165 13.7289 102.375 13.3398L 101.945 9.36299ZM 93.3632 9.60098L 72.825 -1.75043L 70.8901 1.75043L 91.4283 13.1018L 93.3632 9.60098ZM 70.5686 -1.52925L 57.1009 9.82216L 59.6788 12.8807L 73.1465 1.52925L 70.5686 -1.52925ZM 58.3898 9.35141L 45.9323 9.35141L 45.9323 13.3514L 58.3898 13.3514L 58.3898 9.35141ZM 44.8559 9.66573L 30.0415 19.1248L 32.1941 22.4962L 47.0086 13.0371L 44.8559 9.66573ZM 29.2456 20.1071L 22.8484 37.1344L 26.5929 38.5412L 32.99 21.5139L 29.2456 20.1071ZM 23.5168 36.2407L 9.71247 46.6458L 12.1201 49.84L 25.9245 39.435L 23.5168 36.2407ZM 9.12868 47.346L -1.78761 69.1031L 1.78761 70.8969L 12.7039 49.1398L 9.12868 47.346ZM 0 72L 179.885 72L 179.885 68L 0 68L 0 72ZM 181.426 68.7256L 169.434 54.2211L 166.351 56.7699L 178.343 71.2744L 181.426 68.7256ZM 169.362 54.1383L 161.787 45.9401L 158.849 48.6545L 166.423 56.8527L 169.362 54.1383Z"/>
<path id="path6_fill" d="M 25.2724 15.7324L 38.3854 8.01086e-05L 92.6524 15.7325L 108.175 20.9648L 132.915 31.7325L 132.915 97.2325L 28.8487 97.2325L 0 97.2325L 0 71.924L 16.2125 56.8756L 25.2724 54.1395L 8.8215 41.041L 25.2724 15.7324Z"/>
<path id="path7_stroke" d="M 38.3854 8.01086e-05L 38.9423 -1.92083L 37.6864 -2.28493L 36.8491 -1.28045L 38.3854 8.01086e-05ZM 25.2724 15.7324L 23.7361 14.4519L 23.6602 14.543L 23.5955 14.6424L 25.2724 15.7324ZM 8.8215 41.041L 7.14463 39.951L 6.1546 41.4741L 7.57572 42.6056L 8.8215 41.041ZM 25.2724 54.1395L 25.8506 56.0541L 29.5027 54.9512L 26.5182 52.5749L 25.2724 54.1395ZM 16.2125 56.8756L 15.6343 54.961L 15.1912 55.0948L 14.8519 55.4097L 16.2125 56.8756ZM 0 71.924L -1.36061 70.4581L -2 71.0516L -2 71.924L 0 71.924ZM 0 97.2325L -2 97.2325L -2 99.2325L 0 99.2325L 0 97.2325ZM 132.915 97.2325L 132.915 99.2325L 134.915 99.2325L 134.915 97.2325L 132.915 97.2325ZM 92.6524 15.7325L 93.2912 13.8372L 93.2505 13.8235L 93.2092 13.8116L 92.6524 15.7325ZM 108.175 20.9648L 108.973 19.131L 108.895 19.0969L 108.814 19.0696L 108.175 20.9648ZM 132.915 31.7325L 134.915 31.7325L 134.915 30.4217L 133.713 29.8986L 132.915 31.7325ZM 36.8491 -1.28045L 23.7361 14.4519L 26.8087 17.0129L 39.9218 1.28061L 36.8491 -1.28045ZM 23.5955 14.6424L 7.14463 39.951L 10.4984 42.131L 26.9493 16.8224L 23.5955 14.6424ZM 7.57572 42.6056L 24.0266 55.7041L 26.5182 52.5749L 10.0673 39.4764L 7.57572 42.6056ZM 24.6942 52.2249L 15.6343 54.961L 16.7907 58.7902L 25.8506 56.0541L 24.6942 52.2249ZM 14.8519 55.4097L -1.36061 70.4581L 1.36061 73.3898L 17.5731 58.3414L 14.8519 55.4097ZM 2 97.2325L 2 71.924L -2 71.924L -2 97.2325L 2 97.2325ZM 28.8487 95.2325L 0 95.2325L 0 99.2325L 28.8487 99.2325L 28.8487 95.2325ZM 132.915 95.2325L 28.8487 95.2325L 28.8487 99.2325L 132.915 99.2325L 132.915 95.2325ZM 37.8286 1.92099L 92.0955 17.6534L 93.2092 13.8116L 38.9423 -1.92083L 37.8286 1.92099ZM 92.0135 17.6277L 107.536 22.86L 108.814 19.0696L 93.2912 13.8372L 92.0135 17.6277ZM 107.377 22.7986L 132.117 33.5663L 133.713 29.8986L 108.973 19.131L 107.377 22.7986ZM 130.915 31.7325L 130.915 97.2325L 134.915 97.2325L 134.915 31.7325L 130.915 31.7325Z"/>
<path id="path8_fill" d="M 151.333 31.8103C 160.161 40.4802 184.684 58.8013 195.133 73.7427L 203.292 82.4189L 214.126 107L 0 107L 13.9224 73.7427L 31.5281 57.8378L 39.6869 31.8103L 58.5809 17.3514L 74.469 17.3514L 91.6453 0L 117.839 17.3514C 120.129 17.5924 125.826 17.9298 130.292 17.3514C 134.758 16.7731 146.18 26.7497 151.333 31.8103Z"/>
<path id="path9_stroke" d="M 195.133 73.7427L 193.494 74.8889C 193.549 74.9678 193.61 75.0427 193.676 75.1128L 195.133 73.7427ZM 151.333 31.8103L 152.734 30.3834L 152.734 30.3834L 151.333 31.8103ZM 130.292 17.3514L 130.035 15.368L 130.035 15.368L 130.292 17.3514ZM 117.839 17.3514L 116.735 19.0188C 117.003 19.1965 117.31 19.3068 117.63 19.3405L 117.839 17.3514ZM 91.6453 0L 92.7498 -1.66736C 91.9537 -2.19474 90.8958 -2.0857 90.2239 -1.40702L 91.6453 0ZM 74.469 17.3514L 74.469 19.3514C 75.0029 19.3514 75.5147 19.1379 75.8903 18.7585L 74.469 17.3514ZM 58.5809 17.3514L 58.5809 15.3514C 58.1415 15.3514 57.7143 15.4961 57.3654 15.7632L 58.5809 17.3514ZM 39.6869 31.8103L 38.4714 30.222C 38.1439 30.4727 37.9018 30.8185 37.7785 31.2121L 39.6869 31.8103ZM 31.5281 57.8378L 32.8688 59.3219C 33.1337 59.0826 33.3298 58.7767 33.4366 58.4361L 31.5281 57.8378ZM 13.9224 73.7427L 12.5817 72.2587C 12.3633 72.4559 12.1911 72.699 12.0775 72.9704L 13.9224 73.7427ZM 0 107L -1.84487 106.228C -2.10332 106.845 -2.03582 107.551 -1.66503 108.108C -1.29423 108.665 -0.669298 109 0 109L 0 107ZM 214.126 107L 214.126 109C 214.802 109 215.432 108.659 215.801 108.092C 216.17 107.526 216.229 106.812 215.956 106.193L 214.126 107ZM 203.292 82.4189L 205.122 81.6123C 205.03 81.4047 204.904 81.2141 204.749 81.0488L 203.292 82.4189ZM 196.772 72.5966C 191.425 64.9678 182.516 56.4815 173.948 48.9247C 165.376 41.3653 157.078 34.6528 152.734 30.3834L 149.932 33.2372C 154.416 37.6378 162.794 44.4207 171.302 51.9247C 179.815 59.4313 188.392 67.5762 193.494 74.8889L 196.772 72.5966ZM 152.734 30.3834C 150.129 27.8256 145.887 23.9795 141.758 20.8683C 139.686 19.3099 137.543 17.8702 135.668 16.8837C 133.868 15.9401 131.824 15.1364 130.035 15.368L 130.549 19.3349C 130.994 19.2773 132.051 19.5038 133.81 20.4262C 135.494 21.3059 137.366 22.5682 139.352 24.0642C 143.338 27.0619 147.384 30.7344 149.932 33.2372L 152.734 30.3834ZM 130.035 15.368C 125.757 15.931 120.293 15.5992 118.049 15.3624L 117.63 19.3405C 119.966 19.5857 125.896 19.9286 130.549 19.3349L 130.035 15.368ZM 118.944 15.6841L 92.7498 -1.66736L 90.5408 1.66736L 116.735 19.0188L 118.944 15.6841ZM 90.2239 -1.40702L 73.0476 15.9444L 75.8903 18.7585L 93.0667 1.40702L 90.2239 -1.40702ZM 74.469 15.3514L 58.5809 15.3514L 58.5809 19.3514L 74.469 19.3514L 74.469 15.3514ZM 57.3654 15.7632L 38.4714 30.222L 40.9023 33.3986L 59.7963 18.9397L 57.3654 15.7632ZM 37.7785 31.2121L 29.6197 57.2396L 33.4366 58.4361L 41.5953 32.4085L 37.7785 31.2121ZM 30.1874 56.3538L 12.5817 72.2587L 15.2631 75.2268L 32.8688 59.3219L 30.1874 56.3538ZM 12.0775 72.9704L -1.84487 106.228L 1.84487 107.772L 15.7672 74.515L 12.0775 72.9704ZM 0 109L 214.126 109L 214.126 105L 0 105L 0 109ZM 215.956 106.193L 205.122 81.6123L 201.461 83.2256L 212.296 107.807L 215.956 106.193ZM 204.749 81.0488L 196.59 72.3726L 193.676 75.1128L 201.835 83.789L 204.749 81.0488Z"/>
<path id="path10_fill" d="M 72.0422 21.9996C 76.0726 27.75 85.945 37.9737 94.9392 49.1711L 96.9379 55.0132L 105.932 74L 0 74L 6.62775 50.9996L 15.009 40L 18.893 21.9996L 27.8874 12.0001L 35.451 12.0001L 43.6278 0L 57.9629 7.30263C 59.0531 7.4693 59.8996 12.4001 62.0256 12.0001C 64.1516 11.6001 69.5891 18.4998 72.0422 21.9996Z"/>
<path id="path11_stroke" d="M 94.9392 49.1711L 96.8315 48.5236L 96.718 48.1919L 96.4985 47.9186L 94.9392 49.1711ZM 72.0422 21.9996L 73.6799 20.8517L 73.6799 20.8517L 72.0422 21.9996ZM 62.0256 12.0001L 61.6558 10.0346L 61.6558 10.0346L 62.0256 12.0001ZM 57.9629 7.30263L 57.0551 9.08472L 57.3422 9.23097L 57.6607 9.27966L 57.9629 7.30263ZM 43.6278 0L 44.5356 -1.78209L 42.9666 -2.5814L 41.975 -1.1262L 43.6278 0ZM 35.451 12.0001L 35.451 14.0001L 36.5084 14.0001L 37.1038 13.1263L 35.451 12.0001ZM 27.8874 12.0001L 27.8874 10.0001L 26.9964 10.0001L 26.4005 10.6626L 27.8874 12.0001ZM 18.893 21.9996L 17.406 20.6621L 17.0502 21.0577L 16.9379 21.5778L 18.893 21.9996ZM 15.009 40L 16.5998 41.2121L 16.87 40.8576L 16.964 40.4218L 15.009 40ZM 6.62775 50.9996L 5.03693 49.7875L 4.80974 50.0857L 4.70595 50.4459L 6.62775 50.9996ZM 0 74L -1.9218 73.4462L -2.6577 76L 0 76L 0 74ZM 105.932 74L 105.932 76L 109.093 76L 107.74 73.1438L 105.932 74ZM 96.9379 55.0132L 95.0456 55.6606L 95.0822 55.7674L 95.1305 55.8694L 96.9379 55.0132ZM 96.4985 47.9186C 91.9726 42.2849 87.228 36.8971 83.1334 32.2246C 79.0395 27.5528 75.6327 23.6427 73.6799 20.8517L 70.4044 23.1476C 72.482 26.107 76.0267 30.1839 80.1251 34.8608C 84.2229 39.5371 88.9116 44.8599 93.38 50.4235L 96.4985 47.9186ZM 73.6799 20.8517C 72.4315 19.0711 70.3792 16.3692 68.3871 14.1877C 67.3829 13.0908 66.2972 12.0335 65.3546 11.3106C 64.8602 10.9364 64.2624 10.5631 63.772 10.341C 63.2462 10.1094 62.4895 9.87769 61.6558 10.0346L 62.3954 13.9656C 62.0932 14.0224 61.9715 13.9188 62.1596 14.0017C 62.383 14.094 62.578 14.2215 62.9306 14.4925C 63.6821 15.0602 64.5077 15.8716 65.4353 16.8871C 67.3068 18.9305 69.1998 21.4283 70.4044 23.1476L 73.6799 20.8517ZM 61.6558 10.0346C 62.0366 9.96289 62.224 10.2117 62.0845 10.0676C 61.847 9.84323 61.6689 9.50881 61.3876 8.95537C 61.1049 8.40245 60.8151 7.75166 60.5077 7.19319C 60.3437 6.89953 60.0938 6.51723 59.8665 6.2495C 59.6248 5.97406 59.0977 5.45288 58.2651 5.3256L 57.6607 9.27966C 57.3693 9.23512 57.1602 9.1225 57.0423 9.0425C 56.9282 8.96513 56.8692 8.89833 56.8601 8.88797C 56.8241 8.85571 56.9077 8.94736 57.0096 9.13315C 57.234 9.53357 57.4932 10.1217 57.8241 10.7723C 58.1564 11.4224 58.6567 12.2561 59.2099 12.849C 59.8611 13.5221 60.9516 14.2372 62.3954 13.9656L 61.6558 10.0346ZM 58.8707 5.52054L 44.5356 -1.78209L 42.7199 1.78209L 57.0551 9.08472L 58.8707 5.52054ZM 41.975 -1.1262L 33.7982 10.8739L 37.1038 13.1263L 45.2806 1.1262L 41.975 -1.1262ZM 35.451 10.0001L 27.8874 10.0001L 27.8874 14.0001L 35.451 14.0001L 35.451 10.0001ZM 26.4005 10.6626L 17.406 20.6621L 20.3799 23.3372L 29.3744 13.3376L 26.4005 10.6626ZM 16.9379 21.5778L 13.054 39.5782L 16.964 40.4218L 20.848 22.4215L 16.9379 21.5778ZM 13.4181 38.7879L 5.03693 49.7875L 8.21858 52.2118L 16.5998 41.2121L 13.4181 38.7879ZM 4.70595 50.4459L -1.9218 73.4462L 1.9218 74.5538L 8.54955 51.5534L 4.70595 50.4459ZM 0 76L 105.932 76L 105.932 72L 0 72L 0 76ZM 107.74 73.1438L 98.7454 54.1569L 95.1305 55.8694L 104.125 74.8562L 107.74 73.1438ZM 98.8303 54.3657L 96.8315 48.5236L 93.0469 49.8185L 95.0456 55.6606L 98.8303 54.3657Z"/>
<path id="path12_fill" d="M 328.562 139.112L 328.562 174L 30.2541 174L 0 174L 30.2541 103.28L 49.0297 109.5L 64.8184 106.5L 73.7795 115.927L 79.972 103.28L 93.5701 77.9871L 99.9441 74.4741L 112.692 48.4785L 147.112 18.9698L 182.382 0L 199.805 18.9698L 213.863 27L 235.925 48.4785L 243.999 69.556L 328.562 139.112Z"/>
<path id="path13_stroke" d="M 328.562 174L 328.562 176L 330.562 176L 330.562 174L 328.562 174ZM 328.562 139.112L 330.562 139.112L 330.562 138.168L 329.832 137.567L 328.562 139.112ZM 235.925 48.4785L 237.792 47.763L 237.635 47.3523L 237.32 47.0454L 235.925 48.4785ZM 213.863 27L 215.258 25.567L 215.076 25.3895L 214.855 25.2634L 213.863 27ZM 199.805 18.9698L 198.332 20.3227L 198.543 20.552L 198.813 20.7065L 199.805 18.9698ZM 182.382 0L 183.855 -1.35286L 182.804 -2.49767L 181.435 -1.76139L 182.382 0ZM 147.112 18.9698L 146.165 17.2084L 145.975 17.3108L 145.811 17.4514L 147.112 18.9698ZM 112.692 48.4785L 111.391 46.9601L 111.078 47.2281L 110.897 47.5979L 112.692 48.4785ZM 99.9441 74.4741L 100.909 76.2257L 101.462 75.9212L 101.74 75.3547L 99.9441 74.4741ZM 93.5701 77.9871L 92.6047 76.2355L 92.0879 76.5203L 91.8085 77.04L 93.5701 77.9871ZM 79.972 103.28L 78.2104 102.333L 78.1925 102.367L 78.1758 102.401L 79.972 103.28ZM 73.7795 115.927L 72.3299 117.305L 74.3111 119.389L 75.5757 116.806L 73.7795 115.927ZM 64.8184 106.5L 66.2679 105.122L 65.5165 104.332L 64.445 104.535L 64.8184 106.5ZM 49.0297 109.5L 48.4008 111.399L 48.8933 111.562L 49.4031 111.465L 49.0297 109.5ZM 30.2541 103.28L 30.883 101.382L 29.1382 100.804L 28.4153 102.494L 30.2541 103.28ZM 0 174L -1.8388 173.213L -3.03093 176L 0 176L 0 174ZM 330.562 174L 330.562 139.112L 326.562 139.112L 326.562 174L 330.562 174ZM 329.832 137.567L 245.269 68.0114L 242.728 71.1007L 327.291 140.657L 329.832 137.567ZM 243.556 67.6056L 221.884 72.5237L 222.769 76.4246L 244.441 71.5064L 243.556 67.6056ZM 245.866 68.8406L 237.792 47.763L 234.057 49.1939L 242.131 70.2715L 245.866 68.8406ZM 237.32 47.0454L 215.258 25.567L 212.468 28.433L 234.53 49.9115L 237.32 47.0454ZM 214.855 25.2634L 200.797 17.2332L 198.813 20.7065L 212.871 28.7366L 214.855 25.2634ZM 201.278 17.617L 183.855 -1.35286L 180.909 1.35286L 198.332 20.3227L 201.278 17.617ZM 181.435 -1.76139L 146.165 17.2084L 148.06 20.7312L 183.33 1.76139L 181.435 -1.76139ZM 145.811 17.4514L 111.391 46.9601L 113.994 49.9968L 148.414 20.4882L 145.811 17.4514ZM 110.897 47.5979L 98.1484 73.5935L 101.74 75.3547L 114.488 49.3591L 110.897 47.5979ZM 98.9788 72.7225L 92.6047 76.2355L 94.5354 79.7387L 100.909 76.2257L 98.9788 72.7225ZM 93.0387 79.9152L 108.337 84.1307L 109.399 80.2745L 94.1014 76.0589L 93.0387 79.9152ZM 91.8085 77.04L 78.2104 102.333L 81.7336 104.227L 95.3316 78.9341L 91.8085 77.04ZM 78.1758 102.401L 71.9833 115.047L 75.5757 116.806L 81.7682 104.16L 78.1758 102.401ZM 75.2291 114.549L 66.2679 105.122L 63.3688 107.878L 72.3299 117.305L 75.2291 114.549ZM 64.445 104.535L 48.6564 107.535L 49.4031 111.465L 65.1917 108.465L 64.445 104.535ZM 49.6587 107.601L 30.883 101.382L 29.6251 105.179L 48.4008 111.399L 49.6587 107.601ZM 28.4153 102.494L -1.8388 173.213L 1.8388 174.787L 32.0929 104.067L 28.4153 102.494ZM 0 176L 30.2541 176L 30.2541 172L 0 172L 0 176ZM 30.2541 176L 328.562 176L 328.562 172L 30.2541 172L 30.2541 176Z"/>
<path id="path14_fill" d="M 0 30.5L 49.3343 2L 53.6242 2L 70.069 0L 76.5039 7L 83.6538 15.5L 87.9437 30.5L 80.7938 45L 0 30.5Z"/>
<path id="path15_fill" d="M 0 18.5L 33.9782 0L 51.467 19L 44.4715 21L 35.4773 27.5L 26.9827 17.5L 18.4882 25.5L 12.9917 18.5L 0 18.5Z"/>
<path id="path16_stroke" d="M 33.9782 0L 35.4498 -1.35448L 34.3927 -2.50289L 33.0219 -1.75652L 33.9782 0ZM 0 18.5L -0.956366 16.7435L 0 20.5L 0 18.5ZM 12.9917 18.5L 14.5647 17.2648L 13.9641 16.5L 12.9917 16.5L 12.9917 18.5ZM 18.4882 25.5L 16.9151 26.7352L 18.2665 28.4561L 19.8594 26.956L 18.4882 25.5ZM 26.9827 17.5L 28.507 16.2052L 27.1441 14.6007L 25.6115 16.044L 26.9827 17.5ZM 35.4773 27.5L 33.953 28.7948L 35.1501 30.2041L 36.6488 29.121L 35.4773 27.5ZM 44.4715 21L 43.9218 19.077L 43.5844 19.1735L 43.3001 19.379L 44.4715 21ZM 51.467 19L 52.0168 20.923L 55.1348 20.0315L 52.9386 17.6455L 51.467 19ZM 33.0219 -1.75652L -0.956366 16.7435L 0.956366 20.2565L 34.9346 1.75652L 33.0219 -1.75652ZM 0 20.5L 12.9917 20.5L 12.9917 16.5L 0 16.5L 0 20.5ZM 11.4187 19.7352L 16.9151 26.7352L 20.0612 24.2648L 14.5647 17.2648L 11.4187 19.7352ZM 19.8594 26.956L 28.3539 18.956L 25.6115 16.044L 17.117 24.044L 19.8594 26.956ZM 25.4584 18.7948L 33.953 28.7948L 37.0016 26.2052L 28.507 16.2052L 25.4584 18.7948ZM 36.6488 29.121L 45.643 22.621L 43.3001 19.379L 34.3058 25.879L 36.6488 29.121ZM 45.0213 22.923L 52.0168 20.923L 50.9173 17.077L 43.9218 19.077L 45.0213 22.923ZM 52.9386 17.6455L 35.4498 -1.35448L 32.5067 1.35448L 49.9955 20.3545L 52.9386 17.6455Z"/>
<path id="path17_fill" d="M 128.284 21.9996C 136.598 20.3996 156.115 40.6663 164.835 50.9996L 171.643 57L 179.885 68L 0 74L 13.6168 50.9996L 28.3086 40L 35.117 21.9996L 50.8838 12.0001L 64.1422 12.0001L 78.4757 0L 100.334 12.0001C 102.245 12.1667 106.999 12.4001 110.726 12.0001C 114.453 11.6001 123.984 18.4998 128.284 21.9996Z"/>
<path id="path18_stroke" d="M 164.835 50.9996L 163.306 52.2895L 163.401 52.4024L 163.512 52.5001L 164.835 50.9996ZM 128.284 21.9996L 127.022 23.5508L 127.746 24.14L 128.662 23.9636L 128.284 21.9996ZM 110.726 12.0001L 110.939 13.9886L 110.939 13.9886L 110.726 12.0001ZM 100.334 12.0001L 99.3717 13.7532L 99.7409 13.9559L 100.16 13.9925L 100.334 12.0001ZM 78.4757 0L 79.4381 -1.75318L 78.2399 -2.411L 77.1918 -1.53352L 78.4757 0ZM 64.1422 12.0001L 64.1422 14.0001L 64.8689 14.0001L 65.4261 13.5336L 64.1422 12.0001ZM 50.8838 12.0001L 50.8838 10.0001L 50.303 10.0001L 49.8126 10.3111L 50.8838 12.0001ZM 35.117 21.9996L 34.0458 20.3107L 33.4823 20.668L 33.2463 21.2921L 35.117 21.9996ZM 28.3086 40L 29.5072 41.601L 29.9733 41.2521L 30.1792 40.7076L 28.3086 40ZM 13.6168 50.9996L 12.4181 49.3986L 12.0989 49.6376L 11.8958 49.9808L 13.6168 50.9996ZM 0 74L -1.72101 72.9811L -3.57961 76.1205L 0.0666723 75.9989L 0 74ZM 179.885 68L 179.952 69.9989L 183.786 69.871L 181.485 66.8008L 179.885 68ZM 171.643 57L 173.244 55.8008L 173.12 55.6358L 172.965 55.4996L 171.643 57ZM 166.363 49.7098C 161.974 44.5096 154.813 36.7517 147.727 30.5223C 144.176 27.4032 140.532 24.5825 137.287 22.6771C 134.118 20.8207 130.767 19.4851 127.906 20.0357L 128.662 23.9636C 129.958 23.7142 132.164 24.3119 135.266 26.1285C 138.291 27.8959 141.63 30.4878 145.087 33.527C 152.019 39.6143 158.975 47.1564 163.306 52.2895L 166.363 49.7098ZM 129.547 20.4485C 127.367 18.6746 123.808 16.0005 120.349 13.8405C 118.614 12.7589 116.809 11.7542 115.234 11.0673C 113.713 10.4064 112.001 9.85167 110.512 10.0115L 110.939 13.9886C 111.314 13.9485 112.191 14.1062 113.64 14.7359C 115.035 15.3395 116.58 16.2035 118.232 17.2343C 121.545 19.2991 124.902 21.8249 127.022 23.5508L 129.547 20.4485ZM 110.512 10.0115C 106.941 10.4009 102.381 10.1714 100.508 10.0076L 100.16 13.9925C 102.109 14.1621 107.057 14.3992 110.939 13.9886L 110.512 10.0115ZM 101.297 10.2469L 79.4381 -1.75318L 77.5132 1.75318L 99.3717 13.7532L 101.297 10.2469ZM 77.1918 -1.53352L 62.8583 10.4665L 65.4261 13.5336L 79.7595 1.53352L 77.1918 -1.53352ZM 64.1422 10.0001L 50.8838 10.0001L 50.8838 14.0001L 64.1422 14.0001L 64.1422 10.0001ZM 49.8126 10.3111L 34.0458 20.3107L 36.1881 23.6886L 51.9549 13.689L 49.8126 10.3111ZM 33.2463 21.2921L 26.4379 39.2924L 30.1792 40.7076L 36.9876 22.7072L 33.2463 21.2921ZM 27.1099 38.399L 12.4181 49.3986L 14.8154 52.6007L 29.5072 41.601L 27.1099 38.399ZM 11.8958 49.9808L -1.72101 72.9811L 1.72101 75.0189L 15.3378 52.0185L 11.8958 49.9808ZM 0.0666723 75.9989L 179.952 69.9989L 179.818 66.0011L -0.0666723 72.0011L 0.0666723 75.9989ZM 181.485 66.8008L 173.244 55.8008L 170.043 58.1992L 178.284 69.1992L 181.485 66.8008ZM 172.965 55.4996L 166.157 49.4992L 163.512 52.5001L 170.321 58.5004L 172.965 55.4996Z"/>
<path id="path19_fill" d="M 0 87L 0 63.5L 64.4587 38L 103.434 28.5L 152.902 0L 190.878 8L 207.367 21.5L 223.857 28.5L 223.857 87L 0 87Z"/>
<path id="path20_stroke" d="M 0 63.5L -0.735725 61.6402L -2 62.1404L -2 63.5L 0 63.5ZM 0 87L -2 87L -2 89L 0 89L 0 87ZM 64.4587 38L 63.9851 36.0569L 63.8512 36.0895L 63.723 36.1402L 64.4587 38ZM 103.434 28.5L 103.907 30.4431L 104.185 30.3755L 104.432 30.233L 103.434 28.5ZM 152.902 0L 153.314 -1.95705L 152.566 -2.11466L 151.904 -1.73297L 152.902 0ZM 190.878 8L 192.145 6.45248L 191.767 6.1435L 191.29 6.04295L 190.878 8ZM 207.367 21.5L 206.1 23.0475L 206.322 23.229L 206.586 23.341L 207.367 21.5ZM 223.857 28.5L 225.857 28.5L 225.857 27.1763L 224.638 26.659L 223.857 28.5ZM 223.857 87L 223.857 89L 225.857 89L 225.857 87L 223.857 87ZM -2 63.5L -2 87L 2 87L 2 63.5L -2 63.5ZM 0.735725 65.3598L 65.1945 39.8598L 63.723 36.1402L -0.735725 61.6402L 0.735725 65.3598ZM 64.9324 39.9431L 103.907 30.4431L 102.96 26.5569L 63.9851 36.0569L 64.9324 39.9431ZM 104.432 30.233L 153.901 1.73297L 151.904 -1.73297L 102.435 26.767L 104.432 30.233ZM 152.49 1.95705L 190.466 9.95705L 191.29 6.04295L 153.314 -1.95705L 152.49 1.95705ZM 189.611 9.54752L 206.1 23.0475L 208.634 19.9525L 192.145 6.45248L 189.611 9.54752ZM 206.586 23.341L 223.075 30.341L 224.638 26.659L 208.149 19.659L 206.586 23.341ZM 221.857 28.5L 221.857 87L 225.857 87L 225.857 28.5L 221.857 28.5ZM 223.857 85L 0 85L 0 89L 223.857 89L 223.857 85Z"/>
<path id="path21_fill" d="M 0 53L 0 38.6839L 64.4587 23.1494L 103.434 17.3621L 152.902 0L 190.878 4.87356L 207.367 13.0977L 223.857 17.3621L 223.857 53L 0 53Z"/>
<path id="path22_stroke" d="M 0 38.6839L -0.468582 36.7396L -2 37.1086L -2 38.6839L 0 38.6839ZM 0 53L -2 53L -2 55L 0 55L 0 53ZM 64.4587 23.1494L 64.165 21.1711L 64.0768 21.1842L 63.9902 21.2051L 64.4587 23.1494ZM 103.434 17.3621L 103.728 19.3404L 103.916 19.3124L 104.096 19.2492L 103.434 17.3621ZM 152.902 0L 153.157 -1.98373L 152.687 -2.04403L 152.24 -1.88714L 152.902 0ZM 190.878 4.87356L 191.77 3.08382L 191.468 2.93288L 191.132 2.88983L 190.878 4.87356ZM 207.367 13.0977L 206.475 14.8874L 206.663 14.9813L 206.866 15.034L 207.367 13.0977ZM 223.857 17.3621L 225.857 17.3621L 225.857 15.8135L 224.357 15.4258L 223.857 17.3621ZM 223.857 53L 223.857 55L 225.857 55L 225.857 53L 223.857 53ZM -2 38.6839L -2 53L 2 53L 2 38.6839L -2 38.6839ZM 0.468582 40.6282L 64.9273 25.0938L 63.9902 21.2051L -0.468582 36.7396L 0.468582 40.6282ZM 64.7525 25.1277L 103.728 19.3404L 103.14 15.3838L 64.165 21.1711L 64.7525 25.1277ZM 104.096 19.2492L 153.564 1.88714L 152.24 -1.88714L 102.771 15.4749L 104.096 19.2492ZM 152.648 1.98373L 190.623 6.85729L 191.132 2.88983L 153.157 -1.98373L 152.648 1.98373ZM 189.985 6.66331L 206.475 14.8874L 208.26 11.308L 191.77 3.08382L 189.985 6.66331ZM 206.866 15.034L 223.356 19.2984L 224.357 15.4258L 207.868 11.1614L 206.866 15.034ZM 221.857 17.3621L 221.857 53L 225.857 53L 225.857 17.3621L 221.857 17.3621ZM 223.857 51L 0 51L 0 55L 223.857 55L 223.857 51Z"/>
<path id="path23_fill" d="M 141.826 24.6753C 151.016 22.8807 172.594 45.6122 182.234 57.2023L 189.761 63.9324L 199.372 83L 0 83L 15.0541 57.2023L 31.2967 44.8649L 38.8237 24.6753L 56.2548 13.4595L 70.9128 13.4595L 86.7592 0L 110.925 13.4595C 113.038 13.6465 118.294 13.9082 122.414 13.4595C 126.534 13.0109 137.072 20.7498 141.826 24.6753Z"/>
<path id="path24_stroke" d="M 182.234 57.2023L 180.696 58.4812L 180.791 58.5948L 180.901 58.6932L 182.234 57.2023ZM 141.826 24.6753L 140.552 26.2175L 141.281 26.8194L 142.209 26.6382L 141.826 24.6753ZM 110.925 13.4595L 109.952 15.2068L 110.324 15.4142L 110.749 15.4517L 110.925 13.4595ZM 86.7592 0L 87.7324 -1.74727L 86.5212 -2.42188L 85.4645 -1.52435L 86.7592 0ZM 70.9128 13.4595L 70.9128 15.4595L 71.6475 15.4595L 72.2075 14.9839L 70.9128 13.4595ZM 56.2548 13.4595L 56.2548 11.4595L 55.667 11.4595L 55.1726 11.7776L 56.2548 13.4595ZM 38.8237 24.6753L 37.7415 22.9934L 37.1821 23.3533L 36.9498 23.9766L 38.8237 24.6753ZM 31.2967 44.8649L 32.5064 46.4575L 32.9681 46.1068L 33.1707 45.5635L 31.2967 44.8649ZM 15.0541 57.2023L 13.8444 55.6097L 13.5274 55.8505L 13.3267 56.1943L 15.0541 57.2023ZM 0 83L -1.7274 81.992L -3.48271 85L 0 85L 0 83ZM 199.372 83L 199.372 85L 202.62 85L 201.158 82.0998L 199.372 83ZM 189.761 63.9324L 191.547 63.0322L 191.376 62.694L 191.094 62.4415L 189.761 63.9324ZM 183.772 55.9234C 178.923 50.0946 171.017 41.4056 163.192 34.4266C 159.271 30.9326 155.259 27.7813 151.683 25.6514C 148.185 23.5728 144.534 22.1087 141.442 22.7124L 142.209 26.6382C 143.713 26.3446 146.205 27.0489 149.639 29.09C 152.996 31.0797 156.703 33.9991 160.53 37.4124C 168.202 44.2481 175.905 52.7199 180.696 58.4812L 183.772 55.9234ZM 143.099 23.1331C 140.692 21.146 136.768 18.1548 132.951 15.7371C 131.038 14.5266 129.055 13.4069 127.323 12.6407C 125.647 11.9015 123.793 11.2976 122.197 11.4713L 122.63 15.4478C 123.095 15.3972 124.103 15.5924 125.71 16.3007C 127.261 16.982 128.982 17.9583 130.812 19.1171C 134.483 21.4381 138.205 24.279 140.552 26.2175L 143.099 23.1331ZM 122.197 11.4713C 118.235 11.909 113.176 11.6512 111.101 11.4673L 110.749 15.4517C 112.9 15.6417 118.352 15.9073 122.63 15.4478L 122.197 11.4713ZM 111.898 11.7123L 87.7324 -1.74727L 85.786 1.74727L 109.952 15.2068L 111.898 11.7123ZM 85.4645 -1.52435L 69.618 11.9352L 72.2075 14.9839L 88.0539 1.52435L 85.4645 -1.52435ZM 70.9128 11.4595L 56.2548 11.4595L 56.2548 15.4595L 70.9128 15.4595L 70.9128 11.4595ZM 55.1726 11.7776L 37.7415 22.9934L 39.906 26.3572L 57.337 15.1414L 55.1726 11.7776ZM 36.9498 23.9766L 29.4227 44.1662L 33.1707 45.5635L 40.6977 25.3739L 36.9498 23.9766ZM 30.087 43.2722L 13.8444 55.6097L 16.2638 58.795L 32.5064 46.4575L 30.087 43.2722ZM 13.3267 56.1943L -1.7274 81.992L 1.7274 84.008L 16.7815 58.2103L 13.3267 56.1943ZM 0 85L 199.372 85L 199.372 81L 0 81L 0 85ZM 201.158 82.0998L 191.547 63.0322L 187.975 64.8327L 197.586 83.9002L 201.158 82.0998ZM 191.094 62.4415L 183.567 55.7114L 180.901 58.6932L 188.428 65.4234L 191.094 62.4415Z"/>
<path id="path25_fill" d="M 115.167 9.81065C 122.63 9.09714 140.152 18.135 147.979 22.7431L 154.092 25.4189L 161.896 33L 0 33L 12.2244 22.7431L 25.4139 17.8378L 31.5261 9.81065L 45.6806 5.35138L 57.5833 5.35138L 70.4511 0L 90.0744 5.35138C 91.7901 5.4257 96.0579 5.52976 99.4036 5.35138C 102.749 5.173 111.306 8.24991 115.167 9.81065Z"/>
<path id="path26_stroke" d="M 147.979 22.7431L 146.965 24.4666L 147.068 24.5273L 147.177 24.5752L 147.979 22.7431ZM 115.167 9.81065L 114.417 11.6648L 114.87 11.8481L 115.357 11.8016L 115.167 9.81065ZM 99.4036 5.35138L 99.51 7.34854L 99.4036 5.35138ZM 90.0744 5.35138L 89.5482 7.28092L 89.7642 7.33982L 89.9879 7.34951L 90.0744 5.35138ZM 70.4511 0L 70.9773 -1.92954L 70.316 -2.10988L 69.6831 -1.84667L 70.4511 0ZM 57.5833 5.35138L 57.5833 7.35138L 57.9826 7.35138L 58.3513 7.19805L 57.5833 5.35138ZM 45.6806 5.35138L 45.6806 3.35138L 45.373 3.35138L 45.0796 3.44381L 45.6806 5.35138ZM 31.5261 9.81065L 30.9251 7.90308L 30.3195 8.09387L 29.9348 8.59904L 31.5261 9.81065ZM 25.4139 17.8378L 26.111 19.7124L 26.6541 19.5104L 27.0051 19.0495L 25.4139 17.8378ZM 12.2244 22.7431L 11.5272 20.8685L 11.2035 20.9889L 10.9389 21.211L 12.2244 22.7431ZM 0 33L -1.28553 31.4679L -5.49519 35L 0 35L 0 33ZM 161.896 33L 161.896 35L 166.826 35L 163.29 31.5654L 161.896 33ZM 154.092 25.4189L 155.485 23.9843L 155.225 23.732L 154.894 23.5868L 154.092 25.4189ZM 148.994 21.0196C 145.047 18.6964 138.603 15.229 132.236 12.4483C 129.05 11.058 125.795 9.8062 122.9 8.96196C 120.024 8.12517 117.231 7.60416 114.976 7.81973L 115.357 11.8016C 116.834 11.6604 119.029 12.0015 121.783 12.8027C 124.517 13.5964 127.531 14.7583 130.636 16.1143C 136.853 18.8261 143.084 22.1816 146.965 24.4666L 148.994 21.0196ZM 115.916 7.95647C 113.961 7.16622 110.778 5.97811 107.684 5.01846C 104.705 4.09547 101.387 3.24281 99.2971 3.35422L 99.51 7.34854C 100.766 7.28157 103.399 7.87818 106.5 8.83923C 109.486 9.76362 112.512 10.8943 114.417 11.6648L 115.916 7.95647ZM 99.2971 3.35422C 96.0291 3.52997 91.8578 3.42685 90.161 3.35325L 89.9879 7.34951C 91.7225 7.42456 96.0868 7.52955 99.51 7.34854L 99.2971 3.35422ZM 90.6006 3.42184L 70.9773 -1.92954L 69.9249 1.92954L 89.5482 7.28092L 90.6006 3.42184ZM 69.6831 -1.84667L 56.8153 3.50471L 58.3513 7.19805L 71.2191 1.84667L 69.6831 -1.84667ZM 57.5833 3.35138L 45.6806 3.35138L 45.6806 7.35138L 57.5833 7.35138L 57.5833 3.35138ZM 45.0796 3.44381L 30.9251 7.90308L 32.127 11.7182L 46.2816 7.25895L 45.0796 3.44381ZM 29.9348 8.59904L 23.8226 16.6262L 27.0051 19.0495L 33.1173 11.0223L 29.9348 8.59904ZM 24.7167 15.9633L 11.5272 20.8685L 12.9215 24.6176L 26.111 19.7124L 24.7167 15.9633ZM 10.9389 21.211L -1.28553 31.4679L 1.28553 34.5321L 13.5099 24.2752L 10.9389 21.211ZM 0 35L 161.896 35L 161.896 31L 0 31L 0 35ZM 163.29 31.5654L 155.485 23.9843L 152.698 26.8535L 160.503 34.4346L 163.29 31.5654ZM 154.894 23.5868L 148.782 20.911L 147.177 24.5752L 153.29 27.251L 154.894 23.5868Z"/>
<path id="path27_fill" d="M 71.8014 12.4863C 76.4545 11.5782 87.3784 23.0809 92.2588 28.9457L 96.0695 32.3514L 100.935 42L 0 42L 7.62138 28.9457L 15.8444 22.7027L 19.6551 12.4863L 28.4799 6.81085L 35.9007 6.81085L 43.9232 0L 56.1575 6.81085C 57.2272 6.90544 59.888 7.03787 61.9738 6.81085C 64.0597 6.58382 69.3946 10.4999 71.8014 12.4863Z"/>
<path id="path28_stroke" d="M 92.2588 28.9457L 90.7214 30.225L 90.8159 30.3386L 90.9261 30.437L 92.2588 28.9457ZM 71.8014 12.4863L 70.5283 14.0288L 71.2571 14.6303L 72.1845 14.4493L 71.8014 12.4863ZM 61.9738 6.81085L 61.7574 4.82259L 61.7574 4.82259L 61.9738 6.81085ZM 56.1575 6.81085L 55.1847 8.55831L 55.557 8.76554L 55.9813 8.80307L 56.1575 6.81085ZM 43.9232 0L 44.896 -1.74746L 43.6852 -2.42151L 42.6288 -1.52465L 43.9232 0ZM 35.9007 6.81085L 35.9007 8.81085L 36.6352 8.81085L 37.1951 8.3355L 35.9007 6.81085ZM 28.4799 6.81085L 28.4799 4.81085L 27.8923 4.81085L 27.398 5.1287L 28.4799 6.81085ZM 19.6551 12.4863L 18.5733 10.8041L 18.0137 11.164L 17.7812 11.7873L 19.6551 12.4863ZM 15.8444 22.7027L 17.0538 24.2956L 17.5157 23.945L 17.7183 23.4017L 15.8444 22.7027ZM 7.62138 28.9457L 6.41201 27.3528L 6.09492 27.5936L 5.89419 27.9374L 7.62138 28.9457ZM 0 42L -1.72719 40.9916L -3.48355 44L 0 44L 0 42ZM 100.935 42L 100.935 44L 104.184 44L 102.721 41.0994L 100.935 42ZM 96.0695 32.3514L 97.8552 31.4508L 97.6847 31.1125L 97.4022 30.8601L 96.0695 32.3514ZM 93.7961 27.6665C 91.3273 24.7003 87.2743 20.2498 83.2754 16.6829C 81.2673 14.895 79.1603 13.2431 77.296 12.1307C 75.5096 11.0696 73.375 10.1414 71.4183 10.5233L 72.1845 14.4493C 72.5543 14.3771 73.5301 14.5462 75.2532 15.5697C 76.8982 16.542 78.6997 17.9621 80.6143 19.6694C 84.4607 23.093 88.31 27.3263 90.7214 30.225L 93.7961 27.6665ZM 73.0745 10.9438C 71.8411 9.92632 69.8046 8.37556 67.8365 7.12832C 66.8468 6.503 65.7787 5.90103 64.8574 5.49235C 63.9913 5.11065 62.844 4.70432 61.7574 4.82259L 62.1902 8.79911C 62.0487 8.85082 62.5461 8.83937 63.2444 9.15269C 63.9853 9.4765 64.7924 9.93512 65.6981 10.5087C 67.5206 11.6594 69.3549 13.0599 70.5283 14.0288L 73.0745 10.9438ZM 61.7574 4.82259C 59.8293 5.03874 57.365 4.9102 56.3337 4.81862L 55.9813 8.80307C 57.0894 8.90069 59.9467 9.03701 62.1902 8.79911L 61.7574 4.82259ZM 57.1303 5.06338L 44.896 -1.74746L 42.9504 1.74746L 55.1847 8.55831L 57.1303 5.06338ZM 42.6288 -1.52465L 34.6063 5.28619L 37.1951 8.3355L 45.2176 1.52465L 42.6288 -1.52465ZM 35.9007 4.81085L 28.4799 4.81085L 28.4799 8.81085L 35.9007 8.81085L 35.9007 4.81085ZM 27.398 5.1287L 18.5733 10.8041L 20.737 14.1684L 29.5617 8.493L 27.398 5.1287ZM 17.7812 11.7873L 13.9706 22.0037L 17.7183 23.4017L 21.529 13.1852L 17.7812 11.7873ZM 14.6351 21.1098L 6.41201 27.3528L 8.83075 30.5387L 17.0538 24.2956L 14.6351 21.1098ZM 5.89419 27.9374L -1.72719 40.9916L 1.72719 43.0084L 9.34857 29.9541L 5.89419 27.9374ZM 0 44L 100.935 44L 100.935 40L 0 40L 0 44ZM 102.721 41.0994L 97.8552 31.4508L 94.2837 33.2519L 99.1496 42.9006L 102.721 41.0994ZM 97.4022 30.8601L 93.5915 27.4545L 90.9261 30.437L 94.7367 33.8426L 97.4022 30.8601Z"/>
<path id="path29_fill" d="M 147.527 17.8376C 157.087 16.5403 179.532 32.9727 189.56 41.3511L 197.39 46.2162L 207.367 60L 0 60L 15.6593 41.3511L 32.5549 32.4324L 40.3845 17.8376L 58.5163 9.72978L 73.7635 9.72978L 90.247 0L 115.384 9.72978C 117.582 9.86492 123.049 10.0541 127.335 9.72978C 131.621 9.40546 142.582 14.9998 147.527 17.8376Z"/>
<path id="path30_stroke" d="M 189.56 41.3511L 188.278 42.8858L 188.385 42.9758L 188.504 43.0498L 189.56 41.3511ZM 147.527 17.8376L 146.532 19.5722L 147.122 19.9109L 147.796 19.8194L 147.527 17.8376ZM 115.384 9.72978L 114.662 11.5949L 114.952 11.707L 115.262 11.726L 115.384 9.72978ZM 90.247 0L 90.9689 -1.86516L 90.065 -2.21502L 89.2304 -1.72233L 90.247 0ZM 73.7635 9.72978L 73.7635 11.7298L 74.3098 11.7298L 74.7802 11.4521L 73.7635 9.72978ZM 58.5163 9.72978L 58.5163 7.72978L 58.0895 7.72978L 57.6999 7.904L 58.5163 9.72978ZM 40.3845 17.8376L 39.5681 16.0118L 38.9448 16.2905L 38.6221 16.8921L 40.3845 17.8376ZM 32.5549 32.4324L 33.4885 34.2011L 34.0286 33.9161L 34.3173 33.3779L 32.5549 32.4324ZM 15.6593 41.3511L 14.7257 39.5824L 14.3794 39.7651L 14.1277 40.065L 15.6593 41.3511ZM 0 60L -1.53164 58.7139L -4.29095 62L 0 62L 0 60ZM 207.367 60L 207.367 62L 211.284 62L 208.987 58.8273L 207.367 60ZM 197.39 46.2162L 199.01 45.0435L 198.779 44.725L 198.445 44.5175L 197.39 46.2162ZM 190.842 39.8163C 185.795 35.5995 177.563 29.3125 169.422 24.2658C 165.345 21.7411 161.186 19.4706 157.481 17.9375C 153.813 16.4225 150.201 15.4564 147.258 15.8557L 147.796 19.8194C 149.634 19.57 152.412 20.1715 155.954 21.6346C 159.461 23.0795 163.332 25.1976 167.315 27.6661C 175.293 32.6058 183.298 38.7242 188.278 42.8858L 190.842 39.8163ZM 148.523 16.1029C 146.021 14.6676 141.949 12.5106 137.989 10.7671C 136.005 9.89514 133.969 9.09578 132.188 8.54849C 130.438 8.01221 128.648 7.62466 127.184 7.73548L 127.486 11.7241C 128.164 11.6727 129.352 11.8629 131.017 12.373C 132.651 12.8721 134.468 13.5879 136.378 14.4286C 140.206 16.1108 144.088 18.1698 146.532 19.5722L 148.523 16.1029ZM 127.184 7.73548C 123.008 8.05453 117.678 7.86722 115.507 7.73355L 115.262 11.726C 117.486 11.8626 123.09 12.0537 127.486 11.7241L 127.184 7.73548ZM 116.106 7.86463L 90.9689 -1.86516L 89.5251 1.86516L 114.662 11.5949L 116.106 7.86463ZM 89.2304 -1.72233L 72.7469 8.00745L 74.7802 11.4521L 91.2637 1.72233L 89.2304 -1.72233ZM 73.7635 7.72978L 58.5163 7.72978L 58.5163 11.7298L 73.7635 11.7298L 73.7635 7.72978ZM 57.6999 7.904L 39.5681 16.0118L 41.2009 19.6633L 59.3327 11.5556L 57.6999 7.904ZM 38.6221 16.8921L 30.7925 31.487L 34.3173 33.3779L 42.1469 18.783L 38.6221 16.8921ZM 31.6212 30.6637L 14.7257 39.5824L 16.5929 43.1198L 33.4885 34.2011L 31.6212 30.6637ZM 14.1277 40.065L -1.53164 58.7139L 1.53164 61.2861L 17.1909 42.6372L 14.1277 40.065ZM 0 62L 207.367 62L 207.367 58L 0 58L 0 62ZM 208.987 58.8273L 199.01 45.0435L 195.769 47.389L 205.747 61.1727L 208.987 58.8273ZM 198.445 44.5175L 190.615 39.6523L 188.504 43.0498L 196.334 47.915L 198.445 44.5175Z"/>
<path id="path31_fill" d="M 151.333 31.8103C 161.295 29.4968 184.684 58.8013 195.133 73.7427L 203.292 82.4189L 208.868 103.5L 0 107L 13.9224 73.7427L 31.5281 57.8378L 39.6869 31.8103L 58.5809 17.3514L 74.469 17.3514L 91.6453 0L 117.839 17.3514C 120.129 17.5924 125.826 17.9298 130.292 17.3514C 134.758 16.7731 146.18 26.7497 151.333 31.8103Z"/>
<path id="path32_stroke" d="M 195.133 73.7427L 193.494 74.8889L 193.577 75.0075L 193.676 75.1128L 195.133 73.7427ZM 151.333 31.8103L 149.932 33.2372L 150.715 34.007L 151.786 33.7585L 151.333 31.8103ZM 130.292 17.3514L 130.035 15.368L 130.035 15.368L 130.292 17.3514ZM 117.839 17.3514L 116.735 19.0188L 117.143 19.2892L 117.63 19.3405L 117.839 17.3514ZM 91.6453 0L 92.7498 -1.66736L 91.3799 -2.5748L 90.2239 -1.40702L 91.6453 0ZM 74.469 17.3514L 74.469 19.3514L 75.3033 19.3514L 75.8903 18.7585L 74.469 17.3514ZM 58.5809 17.3514L 58.5809 15.3514L 57.9034 15.3514L 57.3654 15.7632L 58.5809 17.3514ZM 39.6869 31.8103L 38.4714 30.222L 37.968 30.6072L 37.7785 31.2121L 39.6869 31.8103ZM 31.5281 57.8378L 32.8688 59.3219L 33.2735 58.9564L 33.4366 58.4361L 31.5281 57.8378ZM 13.9224 73.7427L 12.5817 72.2587L 12.2501 72.5582L 12.0775 72.9704L 13.9224 73.7427ZM 0 107L -1.84487 106.228L -3.02678 109.051L 0.0335092 109L 0 107ZM 208.868 103.5L 208.902 105.5L 211.455 105.457L 210.802 102.989L 208.868 103.5ZM 203.292 82.4189L 205.225 81.9074L 205.095 81.4178L 204.749 81.0488L 203.292 82.4189ZM 196.772 72.5966C 191.522 65.0912 182.973 53.9152 174.505 44.9337C 170.262 40.4364 165.93 36.3899 162.065 33.6519C 160.107 32.2708 158.112 31.1348 156.353 30.4639C 154.54 29.7793 152.657 29.4497 150.881 29.8621L 151.786 33.7585C 152.5 33.5925 153.527 33.6726 154.94 34.2061C 156.408 34.7534 157.957 35.644 159.756 36.9183C 163.404 39.4911 167.44 43.2708 171.595 47.6782C 179.925 56.5059 188.294 67.4529 193.494 74.8889L 196.772 72.5966ZM 152.734 30.3834C 150.129 27.8256 145.887 23.9795 141.758 20.8683C 139.686 19.3099 137.543 17.8702 135.668 16.8837C 133.868 15.9401 131.824 15.1364 130.035 15.368L 130.549 19.3349C 130.994 19.2773 132.051 19.5038 133.81 20.4262C 135.494 21.3059 137.366 22.5682 139.352 24.0642C 143.338 27.0619 147.384 30.7344 149.932 33.2372L 152.734 30.3834ZM 130.035 15.368C 125.757 15.931 120.293 15.5992 118.049 15.3624L 117.63 19.3405C 119.966 19.5857 125.896 19.9286 130.549 19.3349L 130.035 15.368ZM 118.944 15.6841L 92.7498 -1.66736L 90.5408 1.66736L 116.735 19.0188L 118.944 15.6841ZM 90.2239 -1.40702L 73.0476 15.9444L 75.8903 18.7585L 93.0667 1.40702L 90.2239 -1.40702ZM 74.469 15.3514L 58.5809 15.3514L 58.5809 19.3514L 74.469 19.3514L 74.469 15.3514ZM 57.3654 15.7632L 38.4714 30.222L 40.9023 33.3986L 59.7963 18.9397L 57.3654 15.7632ZM 37.7785 31.2121L 29.6197 57.2396L 33.4366 58.4361L 41.5953 32.4085L 37.7785 31.2121ZM 30.1874 56.3538L 12.5817 72.2587L 15.2631 75.2268L 32.8688 59.3219L 30.1874 56.3538ZM 12.0775 72.9704L -1.84487 106.228L 1.84487 107.772L 15.7672 74.515L 12.0775 72.9704ZM 0.0335092 109L 208.902 105.5L 208.835 101.5L -0.0335092 105L 0.0335092 109ZM 210.802 102.989L 205.225 81.9074L 201.358 82.9304L 206.935 104.011L 210.802 102.989ZM 204.749 81.0488L 196.59 72.3726L 193.676 75.1128L 201.835 83.789L 204.749 81.0488Z"/>
<path id="path33_fill" d="M 258.269 64.7591L 352.799 129.518L 358.939 138.541L 369.545 143.41L 384.057 149.164L 394.105 156.689L 400.245 162L 19.3303 162L 0 162L 29.8246 99.0528L 40.319 101.948L 57.9686 99.1552L 67.9859 107.932L 74.9083 96.1574L 90.1091 72.6087L 97.2345 69.338L 111.485 45.1351L 149.962 17.6616L 189.39 0L 208.866 17.6616L 219.316 15.6992L 249.243 45.1351L 258.269 64.7591Z"/>
<path id="path34_stroke" d="M 352.799 129.518L 354.452 128.393L 354.24 128.081L 353.929 127.868L 352.799 129.518ZM 249.243 45.1351L 251.06 44.2994L 250.907 43.9663L 250.645 43.7092L 249.243 45.1351ZM 219.316 15.6992L 220.719 14.2733L 219.974 13.5407L 218.947 13.7335L 219.316 15.6992ZM 208.866 17.6616L 207.522 19.1431L 208.258 19.8106L 209.235 19.6272L 208.866 17.6616ZM 189.39 0L 190.733 -1.48154L 189.765 -2.35959L 188.572 -1.82524L 189.39 0ZM 149.962 17.6616L 149.145 15.8363L 148.963 15.9179L 148.8 16.0339L 149.962 17.6616ZM 111.485 45.1351L 110.323 43.5074L 109.977 43.7543L 109.762 44.1203L 111.485 45.1351ZM 97.2345 69.338L 98.0688 71.1557L 98.6394 70.8938L 98.958 70.3528L 97.2345 69.338ZM 90.1091 72.6087L 89.2748 70.791L 88.7449 71.0342L 88.4288 71.524L 90.1091 72.6087ZM 74.9083 96.1574L 73.228 95.0727L 73.2053 95.1078L 73.1842 95.1438L 74.9083 96.1574ZM 67.9859 107.932L 66.6679 109.436L 68.4854 111.028L 69.71 108.945L 67.9859 107.932ZM 57.9686 99.1552L 59.2866 97.6509L 58.5817 97.0333L 57.656 97.1797L 57.9686 99.1552ZM 40.319 101.948L 39.7871 103.876L 40.2042 103.991L 40.6316 103.924L 40.319 101.948ZM 29.8246 99.0528L 30.3565 97.1249L 28.7367 96.678L 28.0172 98.1965L 29.8246 99.0528ZM 0 162L -1.80739 161.144L -3.16074 164L 0 164L 0 162ZM 358.939 138.541L 357.286 139.666L 357.599 140.126L 358.105 140.359L 358.939 138.541ZM 369.545 143.41L 368.71 145.227L 368.758 145.25L 368.807 145.269L 369.545 143.41ZM 384.057 149.164L 385.256 147.563L 385.043 147.403L 384.795 147.305L 384.057 149.164ZM 394.105 156.689L 395.413 155.176L 395.36 155.13L 395.304 155.088L 394.105 156.689ZM 400.245 162L 400.245 164L 405.614 164L 401.553 160.487L 400.245 162ZM 353.929 127.868L 259.399 63.1091L 257.138 66.409L 351.669 131.168L 353.929 127.868ZM 257.897 62.7939L 233.671 67.3728L 234.413 71.3032L 258.64 66.7243L 257.897 62.7939ZM 260.086 63.9234L 251.06 44.2994L 247.426 45.9708L 256.452 65.5948L 260.086 63.9234ZM 250.645 43.7092L 220.719 14.2733L 217.914 17.125L 247.84 46.561L 250.645 43.7092ZM 218.947 13.7335L 208.497 15.6959L 209.235 19.6272L 219.685 17.6648L 218.947 13.7335ZM 210.209 16.18L 190.733 -1.48154L 188.046 1.48154L 207.522 19.1431L 210.209 16.18ZM 188.572 -1.82524L 149.145 15.8363L 150.78 19.4868L 190.207 1.82524L 188.572 -1.82524ZM 148.8 16.0339L 110.323 43.5074L 112.647 46.7628L 151.125 19.2892L 148.8 16.0339ZM 109.762 44.1203L 95.5111 68.3232L 98.958 70.3528L 113.209 46.1499L 109.762 44.1203ZM 96.4002 67.5203L 89.2748 70.791L 90.9434 74.4263L 98.0688 71.1557L 96.4002 67.5203ZM 89.6617 74.558L 106.763 78.4828L 107.657 74.5841L 90.5565 70.6593L 89.6617 74.558ZM 88.4288 71.524L 73.228 95.0727L 76.5886 97.2421L 91.7894 73.6933L 88.4288 71.524ZM 73.1842 95.1438L 66.2618 106.918L 69.71 108.945L 76.6324 97.171L 73.1842 95.1438ZM 69.3039 106.427L 59.2866 97.6509L 56.6506 100.659L 66.6679 109.436L 69.3039 106.427ZM 57.656 97.1797L 40.0064 99.9729L 40.6316 103.924L 58.2812 101.131L 57.656 97.1797ZM 40.8509 100.02L 30.3565 97.1249L 29.2926 100.981L 39.7871 103.876L 40.8509 100.02ZM 28.0172 98.1965L -1.80739 161.144L 1.80739 162.856L 31.632 99.9092L 28.0172 98.1965ZM 0 164L 19.3303 164L 19.3303 160L 0 160L 0 164ZM 351.145 130.643L 357.286 139.666L 360.592 137.416L 354.452 128.393L 351.145 130.643ZM 358.105 140.359L 368.71 145.227L 370.379 141.592L 359.773 136.723L 358.105 140.359ZM 368.807 145.269L 383.32 151.023L 384.795 147.305L 370.282 141.551L 368.807 145.269ZM 382.859 150.765L 392.906 158.289L 395.304 155.088L 385.256 147.563L 382.859 150.765ZM 392.796 158.201L 398.936 163.513L 401.553 160.487L 395.413 155.176L 392.796 158.201ZM 400.245 160L 19.3303 160L 19.3303 164L 400.245 164L 400.245 160Z"/>
<path id="path35_fill" d="M 208.291 41.9735L 284.529 83.9469L 289.48 89.7951L 298.034 92.9508L 309.738 96.6803L 317.841 101.557L 322.793 105L 15.5897 105L 0 105L 24.0532 64.2009L 32.5169 66.0776L 46.7511 64.2672L 54.8299 69.9558L 60.4127 62.3242L 72.672 47.0612L 78.4186 44.9413L 89.9117 29.2542L 120.943 11.4473L 152.741 0L 168.448 11.4473L 176.876 10.1754L 201.012 29.2542L 208.291 41.9735Z"/>
<path id="path36_stroke" d="M 284.529 83.9469L 286.055 82.6545L 285.816 82.3729L 285.493 82.1949L 284.529 83.9469ZM 201.012 29.2542L 202.748 28.2608L 202.555 27.9251L 202.252 27.6852L 201.012 29.2542ZM 176.876 10.1754L 178.116 8.6064L 177.436 8.0683L 176.578 8.19778L 176.876 10.1754ZM 168.448 11.4473L 167.27 13.0636L 167.934 13.5475L 168.746 13.4249L 168.448 11.4473ZM 152.741 0L 153.919 -1.6163L 153.061 -2.24109L 152.063 -1.88177L 152.741 0ZM 120.943 11.4473L 120.266 9.56554L 120.1 9.6251L 119.948 9.71262L 120.943 11.4473ZM 89.9117 29.2542L 88.9163 27.5196L 88.5488 27.7304L 88.2984 28.0722L 89.9117 29.2542ZM 78.4186 44.9413L 79.1108 46.8177L 79.6759 46.6092L 80.0319 46.1233L 78.4186 44.9413ZM 72.672 47.0612L 71.9799 45.1848L 71.4598 45.3766L 71.1127 45.8087L 72.672 47.0612ZM 60.4127 62.3242L 58.8534 61.0718L 58.8252 61.107L 58.7986 61.1434L 60.4127 62.3242ZM 54.8299 69.9558L 53.6785 71.5911L 55.2844 72.7219L 56.4441 71.1366L 54.8299 69.9558ZM 46.7511 64.2672L 47.9025 62.6319L 47.2683 62.1853L 46.4987 62.2832L 46.7511 64.2672ZM 32.5169 66.0776L 32.0839 68.0302L 32.4238 68.1055L 32.7692 68.0616L 32.5169 66.0776ZM 24.0532 64.2009L 24.4861 62.2483L 23.068 61.9339L 22.3303 63.1852L 24.0532 64.2009ZM 0 105L -1.72288 103.984L -3.5008 107L 0 107L 0 105ZM 289.48 89.7951L 287.954 91.0875L 288.294 91.4892L 288.788 91.6714L 289.48 89.7951ZM 298.034 92.9508L 297.341 94.8272L 297.384 94.8427L 297.427 94.8564L 298.034 92.9508ZM 309.738 96.6803L 310.77 94.9667L 310.569 94.8459L 310.346 94.7747L 309.738 96.6803ZM 317.841 101.557L 318.983 99.9152L 318.929 99.8777L 318.873 99.8438L 317.841 101.557ZM 322.793 105L 322.793 107L 329.174 107L 323.935 103.358L 322.793 105ZM 285.493 82.1949L 209.256 40.2215L 207.326 43.7255L 283.564 85.699L 285.493 82.1949ZM 207.991 39.9961L 188.452 42.964L 189.053 46.9186L 208.591 43.9508L 207.991 39.9961ZM 210.027 40.98L 202.748 28.2608L 199.276 30.2477L 206.555 42.9669L 210.027 40.98ZM 202.252 27.6852L 178.116 8.6064L 175.636 11.7444L 199.771 30.8232L 202.252 27.6852ZM 176.578 8.19778L 168.149 9.4697L 168.746 13.4249L 177.175 12.153L 176.578 8.19778ZM 169.626 9.83101L 153.919 -1.6163L 151.563 1.6163L 167.27 13.0636L 169.626 9.83101ZM 152.063 -1.88177L 120.266 9.56554L 121.621 13.3291L 153.418 1.88177L 152.063 -1.88177ZM 119.948 9.71262L 88.9163 27.5196L 90.9071 30.9889L 121.939 13.182L 119.948 9.71262ZM 88.2984 28.0722L 76.8053 43.7593L 80.0319 46.1233L 91.5251 30.4362L 88.2984 28.0722ZM 77.7264 43.0649L 71.9799 45.1848L 73.3642 48.9376L 79.1108 46.8177L 77.7264 43.0649ZM 72.3093 49.028L 86.101 51.5718L 86.8266 47.6382L 73.0348 45.0943L 72.3093 49.028ZM 71.1127 45.8087L 58.8534 61.0718L 61.972 63.5767L 74.2313 48.3136L 71.1127 45.8087ZM 58.7986 61.1434L 53.2157 68.7749L 56.4441 71.1366L 62.0269 63.5051L 58.7986 61.1434ZM 55.9814 68.3205L 47.9025 62.6319L 45.5996 65.9025L 53.6785 71.5911L 55.9814 68.3205ZM 46.4987 62.2832L 32.2645 64.0936L 32.7692 68.0616L 47.0034 66.2513L 46.4987 62.2832ZM 32.9498 64.125L 24.4861 62.2483L 23.6202 66.1535L 32.0839 68.0302L 32.9498 64.125ZM 22.3303 63.1852L -1.72288 103.984L 1.72288 106.016L 25.7761 65.2166L 22.3303 63.1852ZM 0 107L 15.5897 107L 15.5897 103L 0 103L 0 107ZM 283.002 85.2394L 287.954 91.0875L 291.007 88.5027L 286.055 82.6545L 283.002 85.2394ZM 288.788 91.6714L 297.341 94.8272L 298.726 91.0744L 290.173 87.9187L 288.788 91.6714ZM 297.427 94.8564L 309.131 98.5859L 310.346 94.7747L 298.641 91.0452L 297.427 94.8564ZM 308.707 98.3939L 316.81 103.271L 318.873 99.8438L 310.77 94.9667L 308.707 98.3939ZM 316.7 103.2L 321.652 106.642L 323.935 103.358L 318.983 99.9152L 316.7 103.2ZM 322.793 103L 15.5897 103L 15.5897 107L 322.793 107L 322.793 103Z"/>
<path id="path37_fill" d="M 203.076 21.9996C 216.236 20.3996 247.133 40.6663 260.936 50.9996L 271.714 57L 282.819 74L 0 74L 21.5556 50.9996L 44.8129 40L 55.5907 21.9996L 80.5498 12.0001L 101.538 12.0001L 124.228 0L 158.831 12.0001C 161.856 12.1667 169.381 12.4001 175.281 12.0001C 181.18 11.6001 196.269 18.4998 203.076 21.9996Z"/>
<path id="path38_stroke" d="M 260.936 50.9996L 259.737 52.6007L 259.845 52.6815L 259.963 52.7471L 260.936 50.9996ZM 203.076 21.9996L 202.162 23.7783L 202.708 24.0592L 203.318 23.985L 203.076 21.9996ZM 175.281 12.0001L 175.146 10.0046L 175.146 10.0046L 175.281 12.0001ZM 158.831 12.0001L 158.175 13.8897L 158.44 13.9816L 158.721 13.997L 158.831 12.0001ZM 124.228 0L 124.883 -1.8896L 124.062 -2.17453L 123.293 -1.76797L 124.228 0ZM 101.538 12.0001L 101.538 14.0001L 102.034 14.0001L 102.473 13.768L 101.538 12.0001ZM 80.5498 12.0001L 80.5498 10.0001L 80.1641 10.0001L 79.806 10.1435L 80.5498 12.0001ZM 55.5907 21.9996L 54.8469 20.1431L 54.2211 20.3938L 53.8748 20.9722L 55.5907 21.9996ZM 44.8129 40L 45.668 41.808L 46.2169 41.5484L 46.5288 41.0274L 44.8129 40ZM 21.5556 50.9996L 20.7005 49.1917L 20.3565 49.3544L 20.0963 49.632L 21.5556 50.9996ZM 0 74L -1.4593 72.6324L -4.6154 76L 0 76L 0 74ZM 282.819 74L 282.819 76L 286.514 76L 284.493 72.9062L 282.819 74ZM 271.714 57L 273.388 55.9062L 273.118 55.4928L 272.687 55.2526L 271.714 57ZM 262.135 49.3986C 255.199 44.2069 243.911 36.4816 232.736 30.276C 227.143 27.1724 221.478 24.4009 216.422 22.5271C 211.394 20.6668 206.62 19.5541 202.835 20.0143L 203.318 23.985C 206.113 23.6452 210.135 24.4659 215.034 26.2785C 219.903 28.0775 225.292 30.7185 230.794 33.7733C 241.808 39.8843 252.87 47.459 259.737 52.6007L 262.135 49.3986ZM 203.991 20.221C 200.559 18.4569 194.995 15.8151 189.571 13.6767C 186.857 12.6073 184.103 11.6382 181.685 10.9729C 179.293 10.3162 176.973 9.88077 175.146 10.0046L 175.416 13.9955C 176.539 13.9194 178.317 14.1964 180.626 14.8302C 182.909 15.4556 185.459 16.3551 188.105 17.3981C 193.403 19.4845 198.786 22.0426 202.162 23.7783L 203.991 20.221ZM 175.146 10.0046C 169.345 10.4004 161.942 10.1686 158.941 10.0031L 158.721 13.997C 161.77 14.1649 169.418 14.3997 175.416 13.9955L 175.146 10.0046ZM 159.486 10.1105L 124.883 -1.8896L 123.573 1.8896L 158.175 13.8897L 159.486 10.1105ZM 123.293 -1.76797L 100.603 10.2321L 102.473 13.768L 125.163 1.76797L 123.293 -1.76797ZM 101.538 10.0001L 80.5498 10.0001L 80.5498 14.0001L 101.538 14.0001L 101.538 10.0001ZM 79.806 10.1435L 54.8469 20.1431L 56.3345 23.8562L 81.2936 13.8566L 79.806 10.1435ZM 53.8748 20.9722L 43.097 38.9726L 46.5288 41.0274L 57.3066 23.0271L 53.8748 20.9722ZM 43.9578 38.192L 20.7005 49.1917L 22.4107 52.8076L 45.668 41.808L 43.9578 38.192ZM 20.0963 49.632L -1.4593 72.6324L 1.4593 75.3676L 23.0149 52.3673L 20.0963 49.632ZM 0 76L 282.819 76L 282.819 72L 0 72L 0 76ZM 284.493 72.9062L 273.388 55.9062L 270.039 58.0938L 281.145 75.0938L 284.493 72.9062ZM 272.687 55.2526L 261.909 49.2522L 259.963 52.7471L 270.741 58.7474L 272.687 55.2526Z"/>
<path id="path39_fill" d="M 182.673 13.0809C 194.995 12.1295 223.921 24.18 236.845 30.3241L 246.935 33.8919L 260.335 44L 0 43L 12.724 30.3241L 34.4987 23.7838L 44.5895 13.0809L 67.9575 7.13517L 87.6079 7.13517L 108.852 0L 141.248 7.13517C 144.081 7.23427 151.126 7.37301 156.65 7.13517C 162.173 6.89734 176.3 10.9999 182.673 13.0809Z"/>
<path id="path40_stroke" d="M 236.845 30.3241L 235.986 32.1304L 236.08 32.175L 236.178 32.2097L 236.845 30.3241ZM 182.673 13.0809L 182.052 14.9821L 182.431 15.1056L 182.827 15.0749L 182.673 13.0809ZM 141.248 7.13517L 140.818 9.08836L 140.996 9.12758L 141.178 9.13395L 141.248 7.13517ZM 108.852 0L 109.282 -1.95319L 108.74 -2.07243L 108.215 -1.89592L 108.852 0ZM 87.6079 7.13517L 87.6079 9.13517L 87.9348 9.13517L 88.2447 9.03109L 87.6079 7.13517ZM 67.9575 7.13517L 67.9575 5.13517L 67.707 5.13517L 67.4643 5.19693L 67.9575 7.13517ZM 44.5895 13.0809L 44.0963 11.1426L 43.533 11.286L 43.1343 11.7089L 44.5895 13.0809ZM 34.4987 23.7838L 35.0741 25.6992L 35.5867 25.5453L 35.954 25.1558L 34.4987 23.7838ZM 12.724 30.3241L 12.1487 28.4087L 11.668 28.553L 11.3125 28.9072L 12.724 30.3241ZM 0 43L -1.41153 41.5831C -1.98411 42.1535 -2.15709 43.0125 -1.84995 43.7601C -1.5428 44.5076 -0.815892 44.9969 -0.00768234 45L 0 43ZM 260.335 44L 260.328 46L 266.338 46.0231L 261.54 42.4033L 260.335 44ZM 246.935 33.8919L 248.14 32.2952L 247.893 32.1092L 247.602 32.0063L 246.935 33.8919ZM 237.703 28.5179C 231.211 25.4316 220.652 20.842 210.198 17.1555C 204.969 15.3125 199.691 13.6721 194.976 12.5628C 190.275 11.458 185.914 10.8247 182.519 11.0868L 182.827 15.0749C 185.593 14.8614 189.469 15.3776 194.061 16.4567C 198.639 17.5313 203.71 19.1092 208.868 20.9279C 219.189 24.5648 229.555 29.0725 235.986 32.1304L 237.703 28.5179ZM 183.294 11.1797C 180.086 10.1323 174.893 8.56646 169.828 7.2983C 164.856 6.05379 159.663 5.00358 156.564 5.13703L 156.736 9.13332C 159.16 9.02893 163.792 9.91107 168.857 11.1786C 173.83 12.4225 178.887 13.9485 182.052 14.9821L 183.294 11.1797ZM 156.564 5.13703C 151.103 5.37315 144.135 5.23502 141.318 5.1364L 141.178 9.13395C 144.026 9.23353 151.15 9.37288 156.736 9.13332L 156.564 5.13703ZM 141.678 5.18199L 109.282 -1.95319L 108.421 1.95319L 140.818 9.08836L 141.678 5.18199ZM 108.215 -1.89592L 86.9711 5.23926L 88.2447 9.03109L 109.488 1.89592L 108.215 -1.89592ZM 87.6079 5.13517L 67.9575 5.13517L 67.9575 9.13517L 87.6079 9.13517L 87.6079 5.13517ZM 67.4643 5.19693L 44.0963 11.1426L 45.0826 15.0191L 68.4507 9.07342L 67.4643 5.19693ZM 43.1343 11.7089L 33.0435 22.4118L 35.954 25.1558L 46.0447 14.4529L 43.1343 11.7089ZM 33.9234 21.8683L 12.1487 28.4087L 13.2993 32.2396L 35.0741 25.6992L 33.9234 21.8683ZM 11.3125 28.9072L -1.41153 41.5831L 1.41153 44.4169L 14.1355 31.741L 11.3125 28.9072ZM -0.00768234 45L 260.328 46L 260.343 42L 0.00768234 41L -0.00768234 45ZM 261.54 42.4033L 248.14 32.2952L 245.731 35.4886L 259.131 45.5967L 261.54 42.4033ZM 247.602 32.0063L 237.511 28.4385L 236.178 32.2097L 246.269 35.7775L 247.602 32.0063Z"/>
<path id="path41_fill" d="M 127.84 9.81065C 136.255 9.09714 156.013 18.135 164.84 22.7431L 171.732 25.4189L 180.884 33L 0 33L 11.761 22.7431L 26.6336 17.8378L 33.5257 9.81065L 49.4865 5.35138L 62.9081 5.35138L 77.4179 0L 99.5454 5.35138C 101.48 5.4257 106.292 5.52976 110.065 5.35138C 113.838 5.173 123.487 8.24991 127.84 9.81065Z"/>
<path id="path42_stroke" d="M 164.84 22.7431L 163.914 24.516L 164.012 24.5674L 164.116 24.6075L 164.84 22.7431ZM 127.84 9.81065L 127.165 11.6933L 127.575 11.8403L 128.008 11.8035L 127.84 9.81065ZM 110.065 5.35138L 109.971 3.35361L 109.971 3.35361L 110.065 5.35138ZM 99.5454 5.35138L 99.0753 7.29534L 99.2692 7.34225L 99.4686 7.34991L 99.5454 5.35138ZM 77.4179 0L 77.8881 -1.94396L 77.2967 -2.08698L 76.7259 -1.87645L 77.4179 0ZM 62.9081 5.35138L 62.9081 7.35138L 63.2652 7.35138L 63.6002 7.22783L 62.9081 5.35138ZM 49.4865 5.35138L 49.4865 3.35138L 49.2124 3.35138L 48.9484 3.42515L 49.4865 5.35138ZM 33.5257 9.81065L 32.9876 7.88442L 32.4034 8.04763L 32.0083 8.5078L 33.5257 9.81065ZM 26.6336 17.8378L 27.26 19.7372L 27.7885 19.5629L 28.151 19.1407L 26.6336 17.8378ZM 11.761 22.7431L 11.1346 20.8437L 10.7509 20.9703L 10.4465 21.2358L 11.761 22.7431ZM 0 33L -1.31454 31.4927L -5.33617 35L 0 35L 0 33ZM 180.884 33L 180.884 35L 186.434 35L 182.16 31.4598L 180.884 33ZM 171.732 25.4189L 173.008 23.8787L 172.758 23.6719L 172.456 23.5545L 171.732 25.4189ZM 165.765 20.9701C 161.32 18.6498 154.072 15.1912 146.907 12.4161C 143.322 11.0288 139.677 9.78524 136.43 8.94576C 133.198 8.11187 130.119 7.61018 127.671 7.8178L 128.008 11.8035C 129.767 11.6544 132.314 12.0148 135.43 12.8189C 138.53 13.6173 141.954 14.7874 145.463 16.1464C 152.488 18.8639 159.532 22.2282 163.914 24.516L 165.765 20.9701ZM 128.515 7.92801C 126.315 7.13953 122.742 5.95669 119.265 5.00034C 115.889 4.07264 112.227 3.24693 109.971 3.35361L 110.159 7.34915C 111.676 7.27746 114.725 7.90101 118.205 8.85735C 121.583 9.78504 125.011 10.921 127.165 11.6933L 128.515 7.92801ZM 109.971 3.35361C 106.267 3.52992 101.54 3.42661 99.6222 3.35285L 99.4686 7.34991C 101.42 7.4248 106.318 7.52959 110.159 7.34915L 109.971 3.35361ZM 100.016 3.40742L 77.8881 -1.94396L 76.9478 1.94396L 99.0753 7.29534L 100.016 3.40742ZM 76.7259 -1.87645L 62.2161 3.47493L 63.6002 7.22783L 78.11 1.87645L 76.7259 -1.87645ZM 62.9081 3.35138L 49.4865 3.35138L 49.4865 7.35138L 62.9081 7.35138L 62.9081 3.35138ZM 48.9484 3.42515L 32.9876 7.88442L 34.0639 11.7369L 50.0247 7.27761L 48.9484 3.42515ZM 32.0083 8.5078L 25.1162 16.535L 28.151 19.1407L 35.0432 11.1135L 32.0083 8.5078ZM 26.0071 15.9385L 11.1346 20.8437L 12.3875 24.6424L 27.26 19.7372L 26.0071 15.9385ZM 10.4465 21.2358L -1.31454 31.4927L 1.31454 34.5073L 13.0756 24.2504L 10.4465 21.2358ZM 0 35L 180.884 35L 180.884 31L 0 31L 0 35ZM 182.16 31.4598L 173.008 23.8787L 170.456 26.9592L 179.608 34.5402L 182.16 31.4598ZM 172.456 23.5545L 165.563 20.8787L 164.116 24.6075L 171.008 27.2833L 172.456 23.5545Z"/>
<path id="path43_fill" d="M 0 14.5L 16.9891 0L 31.9795 16L 21.9859 14.5L 21.4862 20.5L 14.9904 14.5L 9.9936 20L 7.4952 14L 0 14.5Z"/>
<path id="path44_stroke" d="M 16.9891 0L 18.4486 -1.36742L 17.1431 -2.76085L 15.6908 -1.52126L 16.9891 0ZM 0 14.5L -1.29837 12.9787L -5.88965 16.8973L 0.133123 16.4956L 0 14.5ZM 7.4952 14L 9.34153 13.2312L 8.79102 11.9091L 7.36208 12.0044L 7.4952 14ZM 9.9936 20L 8.14727 20.7688L 9.35727 23.6747L 11.4739 21.3449L 9.9936 20ZM 14.9904 14.5L 16.3474 13.0308L 14.8661 11.6626L 13.5101 13.1551L 14.9904 14.5ZM 21.4862 20.5L 20.1292 21.9692L 23.1393 24.7495L 23.4793 20.666L 21.4862 20.5ZM 21.9859 14.5L 22.2828 12.5222L 20.1701 12.2051L 19.9928 14.334L 21.9859 14.5ZM 31.9795 16L 31.6827 17.9778L 37.3735 18.832L 33.439 14.6326L 31.9795 16ZM 15.6908 -1.52126L -1.29837 12.9787L 1.29837 16.0213L 18.2875 1.52126L 15.6908 -1.52126ZM 0.133123 16.4956L 7.62832 15.9956L 7.36208 12.0044L -0.133123 12.5044L 0.133123 16.4956ZM 5.64887 14.7688L 8.14727 20.7688L 11.8399 19.2312L 9.34153 13.2312L 5.64887 14.7688ZM 11.4739 21.3449L 16.4707 15.8449L 13.5101 13.1551L 8.51329 18.6551L 11.4739 21.3449ZM 13.6334 15.9692L 20.1292 21.9692L 22.8433 19.0308L 16.3474 13.0308L 13.6334 15.9692ZM 23.4793 20.666L 23.979 14.666L 19.9928 14.334L 19.4931 20.334L 23.4793 20.666ZM 21.6891 16.4778L 31.6827 17.9778L 32.2764 14.0222L 22.2828 12.5222L 21.6891 16.4778ZM 33.439 14.6326L 18.4486 -1.36742L 15.5296 1.36742L 30.52 17.3674L 33.439 14.6326Z"/>
<path id="path45_fill" d="M 17.3039 17.7049L 36.2823 0L 71.4482 15.9344L 77.0301 20.8033L 66.9827 22.5738L 58.0517 28.3279L 45.2133 24.7869L 36.2823 32.3115L 24.5603 24.7869L 16.1875 32.3115L 9.48921 24.7869L 0 22.5738L 6.69827 15.9344L 17.3039 17.7049Z"/>
<path id="path46_stroke" d="M 36.2823 0L 37.1077 -1.82171L 35.8931 -2.37209L 34.918 -1.46243L 36.2823 0ZM 17.3039 17.7049L 16.9745 19.6776L 17.9471 19.84L 18.6682 19.1673L 17.3039 17.7049ZM 6.69827 15.9344L 7.02759 13.9617L 6.01758 13.7931L 5.29032 14.514L 6.69827 15.9344ZM 0 22.5738L -1.40795 21.1533L -3.97711 23.6999L -0.454258 24.5215L 0 22.5738ZM 9.48921 24.7869L 10.9831 23.4571L 10.5613 22.9832L 9.94347 22.8392L 9.48921 24.7869ZM 16.1875 32.3115L 14.6936 33.6413L 16.0297 35.1422L 17.5243 33.799L 16.1875 32.3115ZM 24.5603 24.7869L 25.6407 23.1038L 24.3576 22.2801L 23.2235 23.2993L 24.5603 24.7869ZM 36.2823 32.3115L 35.2019 33.9945L 36.443 34.7913L 37.5709 33.841L 36.2823 32.3115ZM 77.0301 20.8033L 77.3772 22.7729L 81.4983 22.0467L 78.3448 19.2961L 77.0301 20.8033ZM 71.4482 15.9344L 72.7629 14.4272L 72.5414 14.234L 72.2737 14.1127L 71.4482 15.9344ZM 58.0517 28.3279L 57.5199 30.2559L 58.3826 30.4938L 59.1349 30.0091L 58.0517 28.3279ZM 66.9827 22.5738L 66.6356 20.6041L 66.2385 20.6741L 65.8995 20.8925L 66.9827 22.5738ZM 45.2133 24.7869L 45.7451 22.8589L 44.73 22.5789L 43.9247 23.2574L 45.2133 24.7869ZM 34.918 -1.46243L 15.9396 16.2425L 18.6682 19.1673L 37.6466 1.46243L 34.918 -1.46243ZM 17.6332 15.7322L 7.02759 13.9617L 6.36895 17.9071L 16.9745 19.6776L 17.6332 15.7322ZM 5.29032 14.514L -1.40795 21.1533L 1.40795 23.9942L 8.10622 17.3549L 5.29032 14.514ZM -0.454258 24.5215L 9.03496 26.7346L 9.94347 22.8392L 0.454258 20.626L -0.454258 24.5215ZM 7.99536 26.1167L 14.6936 33.6413L 17.6813 30.9817L 10.9831 23.4571L 7.99536 26.1167ZM 17.5243 33.799L 25.8972 26.2744L 23.2235 23.2993L 14.8506 30.8239L 17.5243 33.799ZM 23.4799 26.47L 35.2019 33.9945L 37.3627 30.6284L 25.6407 23.1038L 23.4799 26.47ZM 78.3448 19.2961L 72.7629 14.4272L 70.1335 17.4416L 75.7154 22.3105L 78.3448 19.2961ZM 72.2737 14.1127L 37.1077 -1.82171L 35.4568 1.82171L 70.6227 17.7561L 72.2737 14.1127ZM 59.1349 30.0091L 68.0659 24.255L 65.8995 20.8925L 56.9684 26.6466L 59.1349 30.0091ZM 67.3298 24.5434L 77.3772 22.7729L 76.683 18.8336L 66.6356 20.6041L 67.3298 24.5434ZM 37.5709 33.841L 46.502 26.3164L 43.9247 23.2574L 34.9936 30.782L 37.5709 33.841ZM 58.5834 26.3999L 45.7451 22.8589L 44.6815 26.7149L 57.5199 30.2559L 58.5834 26.3999Z"/>
<path id="path47_fill" d="M 27.4824 30.5L 61.9603 2L 64.9584 2L 76.4511 0L 80.9482 7L 85.945 15.5L 88.9431 30.5L 83.9463 45L 70.4549 53L 78.9495 59.5L 70.4549 76L 53.9655 72.5L 52.9661 81.5L 39.9744 96.5L 0 93.5L 3.99744 69.5L 7.99488 59.5C 9.82704 59.3333 14.091 58.5 16.4894 56.5C 18.8879 54.5 24.8174 38.3333 27.4824 30.5Z"/>
<path id="path48_fill" d="M 0 30.658L 32.1536 2.01036L 34.9495 2.01036L 45.6674 0L 49.8613 7.03627L 54.5213 15.5803L 57.3172 30.658L 52.6573 45.2332L 0 30.658Z"/>
<path id="path49_fill" d="M 156.091 33.5941C 166.367 31.1508 190.491 62.0986 201.268 77.8778L 209.684 87.0405L 220.859 113L 0 113L 14.3601 77.8778L 32.5194 61.0811L 40.9347 33.5941L 60.4228 18.3244L 76.8105 18.3244L 94.5269 0L 121.544 18.3244C 123.907 18.5789 129.783 18.9352 134.389 18.3244C 138.995 17.7136 150.776 28.2497 156.091 33.5941Z"/>
<path id="path50_stroke" d="M 201.268 77.8778L 199.617 79.0059L 199.698 79.1247L 199.795 79.2307L 201.268 77.8778ZM 156.091 33.5941L 154.673 35.0044L 155.464 35.7991L 156.554 35.5398L 156.091 33.5941ZM 134.389 18.3244L 134.652 20.3071L 134.652 20.3071L 134.389 18.3244ZM 121.544 18.3244L 120.422 19.9796L 120.834 20.2595L 121.33 20.3129L 121.544 18.3244ZM 94.5269 0L 95.6495 -1.6552L 94.2578 -2.5991L 93.089 -1.39016L 94.5269 0ZM 76.8105 18.3244L 76.8105 20.3244L 77.6587 20.3244L 78.2483 19.7146L 76.8105 18.3244ZM 60.4228 18.3244L 60.4228 16.3244L 59.7326 16.3244L 59.1893 16.7501L 60.4228 18.3244ZM 40.9347 33.5941L 39.7012 32.0198L 39.2064 32.4075L 39.0224 33.0086L 40.9347 33.5941ZM 32.5194 61.0811L 33.8775 62.5493L 34.2738 62.1827L 34.4318 61.6666L 32.5194 61.0811ZM 14.3601 77.8778L 13.0021 76.4096L 12.6767 76.7106L 12.5089 77.1209L 14.3601 77.8778ZM 0 113L -1.85124 112.243L -2.97844 115L 0 115L 0 113ZM 220.859 113L 220.859 115L 223.897 115L 222.696 112.209L 220.859 113ZM 209.684 87.0405L 211.521 86.2497L 211.386 85.9378L 211.157 85.6877L 209.684 87.0405ZM 202.92 76.7498C 197.507 68.8255 188.693 57.0288 179.963 47.5475C 175.588 42.8001 171.126 38.532 167.142 35.6435C 165.125 34.1865 163.073 32.9899 161.262 32.2827C 159.395 31.5611 157.456 31.2138 155.629 31.6483L 156.554 35.5398C 157.295 35.3635 158.358 35.4489 159.82 36.0137C 161.336 36.5929 162.939 37.5365 164.797 38.8839C 168.564 41.604 172.732 45.601 177.021 50.2575C 185.615 59.5841 194.252 71.1509 199.617 79.0059L 202.92 76.7498ZM 157.509 32.1838C 154.824 29.4838 150.452 25.4254 146.195 22.1419C 144.06 20.4971 141.853 18.9793 139.922 17.939C 138.069 16.9442 135.965 16.0979 134.126 16.3418L 134.652 20.3071C 135.115 20.2456 136.212 20.4872 138.03 21.4632C 139.769 22.3935 141.703 23.7293 143.753 25.3102C 147.867 28.4781 152.044 32.36 154.673 35.0044L 157.509 32.1838ZM 134.126 16.3418C 129.711 16.9365 124.074 16.586 121.759 16.3359L 121.33 20.3129C 123.739 20.5719 129.854 20.934 134.652 20.3071L 134.126 16.3418ZM 122.667 16.6692L 95.6495 -1.6552L 93.4042 1.6552L 120.422 19.9796L 122.667 16.6692ZM 93.089 -1.39016L 75.3726 16.9343L 78.2483 19.7146L 95.9647 1.39016L 93.089 -1.39016ZM 76.8105 16.3244L 60.4228 16.3244L 60.4228 20.3244L 76.8105 20.3244L 76.8105 16.3244ZM 59.1893 16.7501L 39.7012 32.0198L 42.1683 35.1684L 61.6563 19.8987L 59.1893 16.7501ZM 39.0224 33.0086L 30.6071 60.4956L 34.4318 61.6666L 42.8471 34.1795L 39.0224 33.0086ZM 31.1614 59.6129L 13.0021 76.4096L 15.7182 79.3461L 33.8775 62.5493L 31.1614 59.6129ZM 12.5089 77.1209L -1.85124 112.243L 1.85124 113.757L 16.2114 78.6347L 12.5089 77.1209ZM 0 115L 220.859 115L 220.859 111L 0 111L 0 115ZM 222.696 112.209L 211.521 86.2497L 207.846 87.8313L 219.022 113.791L 222.696 112.209ZM 211.157 85.6877L 202.741 76.525L 199.795 79.2307L 208.21 88.3934L 211.157 85.6877Z"/>
<path id="path51_fill" d="M 99.4363 32.9995C 105.62 30.5995 108.728 58.5005 126.919 75L 132.915 88L 142.409 111L 0 111L 8.64207 76.4995L 19.5705 60L 24.6349 32.9995L 36.363 18.0001L 46.2253 18.0001L 56.8872 0L 73.1466 18.0001C 74.5682 18.2501 78.1044 18.6001 80.8765 18.0001C 83.6486 17.4001 96.2378 27.7497 99.4363 32.9995Z"/>
<path id="path52_stroke" d="M 126.919 75L 128.735 74.1623L 128.564 73.7923L 128.262 73.5186L 126.919 75ZM 99.4363 32.9995L 97.7284 34.0401L 98.5994 35.4696L 100.16 34.864L 99.4363 32.9995ZM 80.8765 18.0001L 80.4534 16.0454L 80.4534 16.0454L 80.8765 18.0001ZM 73.1466 18.0001L 71.6625 19.3407L 72.1232 19.8508L 72.8002 19.9699L 73.1466 18.0001ZM 56.8872 0L 58.3714 -1.34063L 56.5507 -3.35624L 55.1664 -1.01926L 56.8872 0ZM 46.2253 18.0001L 46.2253 20.0001L 47.3652 20.0001L 47.9461 19.0194L 46.2253 18.0001ZM 36.363 18.0001L 36.363 16.0001L 35.388 16.0001L 34.7875 16.7682L 36.363 18.0001ZM 24.6349 32.9995L 23.0594 31.7675L 22.7591 32.1516L 22.6692 32.6308L 24.6349 32.9995ZM 19.5705 60L 21.2379 61.1044L 21.4616 60.7668L 21.5362 60.3687L 19.5705 60ZM 8.64207 76.4995L 6.97466 75.3951L 6.78532 75.6809L 6.70201 76.0135L 8.64207 76.4995ZM 0 111L -1.94006 110.514L -2.56277 113L 0 113L 0 111ZM 142.409 111L 142.409 113L 145.398 113L 144.258 110.237L 142.409 111ZM 132.915 88L 134.764 87.2369L 134.748 87.1993L 134.731 87.1623L 132.915 88ZM 128.262 73.5186C 119.427 65.5548 114.317 54.8166 110.507 46.1106C 108.606 41.7659 107.025 37.8916 105.519 35.2391C 104.766 33.9173 103.912 32.6834 102.89 31.8719C 101.761 30.9756 100.299 30.5195 98.7127 31.135L 100.16 34.864C 100.273 34.7981 100.235 34.8903 100.156 34.8522C 100.048 34.8482 100.206 34.8363 100.403 35.0048C 100.805 35.3243 101.352 36.0054 102.044 37.2195C 103.427 39.6391 104.92 43.3213 106.843 47.7142C 110.681 56.4837 116.22 67.9458 125.575 76.4814L 128.262 73.5186ZM 101.144 31.9589C 99.3567 29.0248 95.1804 24.9462 91.2589 21.7549C 89.2682 20.1359 87.2171 18.6505 85.5219 17.6355C 84.6562 17.1194 83.77 16.6667 83.054 16.3893C 82.3842 16.1328 81.4087 15.8386 80.4534 16.0454L 81.2996 19.9548C 81.0373 20.0116 81.0616 19.9096 81.6234 20.1247C 82.139 20.319 82.7161 20.6174 83.4704 21.0693C 85.0153 21.9901 86.8311 23.3077 88.7341 24.8574C 92.5999 28.0033 96.3174 31.7243 97.7284 34.0401L 101.144 31.9589ZM 80.4534 16.0454C 77.99 16.6034 74.8401 16.2687 73.493 16.0303L 72.8002 19.9699C 74.2963 20.2315 78.2188 20.5968 81.2996 19.9548L 80.4534 16.0454ZM 74.6308 16.6595L 58.3714 -1.34063L 55.4031 1.34063L 71.6625 19.3407L 74.6308 16.6595ZM 55.1664 -1.01926L 44.5045 16.9808L 47.9461 19.0194L 58.608 1.01926L 55.1664 -1.01926ZM 46.2253 16.0001L 36.363 16.0001L 36.363 20.0001L 46.2253 20.0001L 46.2253 16.0001ZM 34.7875 16.7682L 23.0594 31.7675L 26.2105 34.2314L 37.9386 19.232L 34.7875 16.7682ZM 22.6692 32.6308L 17.6048 59.6313L 21.5362 60.3687L 26.6007 33.3682L 22.6692 32.6308ZM 17.9031 58.8956L 6.97466 75.3951L 10.3095 77.6039L 21.2379 61.1044L 17.9031 58.8956ZM 6.70201 76.0135L -1.94006 110.514L 1.94006 111.486L 10.5821 76.9854L 6.70201 76.0135ZM 0 113L 142.409 113L 142.409 109L 0 109L 0 113ZM 144.258 110.237L 134.764 87.2369L 131.066 88.7631L 140.56 111.763L 144.258 110.237ZM 134.731 87.1623L 128.735 74.1623L 125.103 75.8377L 131.099 88.8377L 134.731 87.1623Z"/>
<path id="path53_fill" d="M 99.7852 8.91878C 105.991 8.27013 109.109 15.811 127.364 20.2703L 133.381 23.7838L 142.909 30L 0 30L 8.67239 20.6755L 19.6392 16.2162L 24.7214 8.91878L 36.4906 4.86489L 46.3875 4.86489L 57.0868 0L 73.4033 4.86489C 74.8298 4.93246 78.3785 5.02705 81.1603 4.86489C 83.9421 4.70273 96.5754 7.49991 99.7852 8.91878Z"/>
<path id="path54_stroke" d="M 127.364 20.2703L 128.373 18.5431L 128.121 18.3964L 127.839 18.3274L 127.364 20.2703ZM 99.7852 8.91878L 98.9766 10.748L 99.4636 10.9633L 99.9932 10.9079L 99.7852 8.91878ZM 73.4033 4.86489L 72.8318 6.78151L 73.0653 6.85113L 73.3086 6.86265L 73.4033 4.86489ZM 57.0868 0L 57.6583 -1.91662L 56.9407 -2.13058L 56.259 -1.82063L 57.0868 0ZM 46.3875 4.86489L 46.3875 6.86489L 46.8208 6.86489L 47.2153 6.68552L 46.3875 4.86489ZM 36.4906 4.86489L 36.4906 2.86489L 36.1558 2.86489L 35.8393 2.97392L 36.4906 4.86489ZM 24.7214 8.91878L 24.07 7.02781L 23.4531 7.24032L 23.0802 7.77579L 24.7214 8.91878ZM 19.6392 16.2162L 20.3925 18.0689L 20.9416 17.8456L 21.2804 17.3592L 19.6392 16.2162ZM 8.67239 20.6755L 7.91905 18.8228L 7.50921 18.9895L 7.2079 19.3135L 8.67239 20.6755ZM 0 30L -1.46449 28.6379L -4.59146 32L 0 32L 0 30ZM 142.909 30L 142.909 32L 149.634 32L 144.001 28.325L 142.909 30ZM 133.381 23.7838L 134.474 22.1088L 134.433 22.0817L 134.39 22.0567L 133.381 23.7838ZM 127.839 18.3274C 118.97 16.18 113.907 13.3166 110.104 10.9758C 108.214 9.81264 106.578 8.73477 105 7.98349C 103.375 7.22531 101.484 6.76207 99.5773 6.92961L 99.9932 10.9079C 101.189 10.7512 102.015 10.9873 103.291 11.5999C 104.614 12.2195 106.061 13.1839 108.008 14.3823C 111.879 16.7645 117.503 19.9012 126.889 22.2131L 127.839 18.3274ZM 100.594 7.08953C 98.7758 6.28586 94.6188 5.19536 90.7405 4.34532C 88.7644 3.91234 86.7689 3.52293 85.1104 3.25577C 83.5121 2.99858 81.9907 2.81309 81.0439 2.86828L 81.2767 6.8615C 81.7208 6.83561 82.8218 6.93896 84.4749 7.20497C 86.0678 7.46102 87.9529 7.82917 89.8841 8.25258C 93.8204 9.11531 97.5849 10.1328 98.9766 10.748L 100.594 7.08953ZM 81.0439 2.86828C 78.3469 3.0273 74.9038 2.93383 73.4979 2.86713L 73.3086 6.86265C 74.7559 6.93109 78.41 7.0268 81.2767 6.8615L 81.0439 2.86828ZM 73.9747 2.94827L 57.6583 -1.91662L 56.5154 1.91662L 72.8318 6.78151L 73.9747 2.94827ZM 56.259 -1.82063L 45.5597 3.04426L 47.2153 6.68552L 57.9146 1.82063L 56.259 -1.82063ZM 46.3875 2.86489L 36.4906 2.86489L 36.4906 6.86489L 46.3875 6.86489L 46.3875 2.86489ZM 35.8393 2.97392L 24.07 7.02781L 25.3727 10.8097L 37.142 6.75586L 35.8393 2.97392ZM 23.0802 7.77579L 17.998 15.0732L 21.2804 17.3592L 26.3626 10.0618L 23.0802 7.77579ZM 18.8859 14.3635L 7.91905 18.8228L 9.42573 22.5282L 20.3925 18.0689L 18.8859 14.3635ZM 7.2079 19.3135L -1.46449 28.6379L 1.46449 31.3621L 10.1369 22.0376L 7.2079 19.3135ZM 0 32L 142.909 32L 142.909 28L 0 28L 0 32ZM 144.001 28.325L 134.474 22.1088L 132.288 25.4588L 141.816 31.675L 144.001 28.325ZM 134.39 22.0567L 128.373 18.5431L 126.356 21.9974L 132.373 25.5109L 134.39 22.0567Z"/>
</defs>
</svg>
